<svg xmlns="http://www.w3.org/2000/svg" version="1.1" xmlns:xlink="http://www.w3.org/1999/xlink" xmlns:svgjs="http://svgjs.com/svgjs" width="1440" height="560" preserveAspectRatio="none" viewBox="0 0 1440 560"><g mask="url(&quot;#SvgjsMask1012&quot;)" fill="none"><path d="M-54.39 406.32L-54.39 406.32" stroke="#132e65" stroke-width="1.5"></path><path d="M-54.39 406.32L-61.99 495.18" stroke="#132e65" stroke-width="1.5"></path><path d="M-54.39 406.32L41.77 346.17" stroke="#132e65" stroke-width="1.5"></path><path d="M-54.39 406.32L101.57 498.94" stroke="#132e65" stroke-width="1.5"></path><path d="M-54.39 406.32L-48.31 647.5" stroke="#132e65" stroke-width="1.5"></path><path d="M-54.39 406.32L206.14 494.21" stroke="#132e65" stroke-width="1.5"></path><path d="M-54.39 406.32L46.71 699.95" stroke="#132e65" stroke-width="1.5"></path><path d="M-61.99 495.18L-61.99 495.18" stroke="#132e65" stroke-width="1.5"></path><path d="M-61.99 495.18L-48.31 647.5" stroke="#132e65" stroke-width="1.5"></path><path d="M-48.31 647.5L-48.31 647.5" stroke="#132e65" stroke-width="1.5"></path><path d="M-48.31 647.5L46.71 699.95" stroke="#132e65" stroke-width="1.5"></path><path d="M41.77 346.17L41.77 346.17" stroke="#132e65" stroke-width="1.5"></path><path d="M41.77 346.17L101.57 498.94" stroke="#132e65" stroke-width="1.5"></path><path d="M101.57 498.94L101.57 498.94" stroke="#132e65" stroke-width="1.5"></path><path d="M101.57 498.94L206.14 494.21" stroke="#132e65" stroke-width="1.5"></path><path d="M101.57 498.94L-61.99 495.18" stroke="#132e65" stroke-width="1.5"></path><path d="M46.71 699.95L46.71 699.95" stroke="#132e65" stroke-width="1.5"></path><path d="M46.71 699.95L244.75 705.63" stroke="#132e65" stroke-width="1.5"></path><path d="M46.71 699.95L101.57 498.94" stroke="#132e65" stroke-width="1.5"></path><path d="M46.71 699.95L-61.99 495.18" stroke="#132e65" stroke-width="1.5"></path><path d="M206.14 494.21L206.14 494.21" stroke="#132e65" stroke-width="1.5"></path><path d="M206.14 494.21L389.89 522.53" stroke="#132e65" stroke-width="1.5"></path><path d="M244.75 705.63L244.75 705.63" stroke="#132e65" stroke-width="1.5"></path><path d="M244.75 705.63L342.84 711.43" stroke="#132e65" stroke-width="1.5"></path><path d="M244.75 705.63L206.14 494.21" stroke="#132e65" stroke-width="1.5"></path><path d="M244.75 705.63L389.89 522.53" stroke="#132e65" stroke-width="1.5"></path><path d="M353.64 342.19L353.64 342.19" stroke="#132e65" stroke-width="1.5"></path><path d="M353.64 342.19L505.13 391.01" stroke="#132e65" stroke-width="1.5"></path><path d="M353.64 342.19L389.89 522.53" stroke="#132e65" stroke-width="1.5"></path><path d="M353.64 342.19L206.14 494.21" stroke="#132e65" stroke-width="1.5"></path><path d="M389.89 522.53L389.89 522.53" stroke="#132e65" stroke-width="1.5"></path><path d="M389.89 522.53L487.91 556.55" stroke="#132e65" stroke-width="1.5"></path><path d="M389.89 522.53L505.13 391.01" stroke="#132e65" stroke-width="1.5"></path><path d="M389.89 522.53L524.85 640.82" stroke="#132e65" stroke-width="1.5"></path><path d="M389.89 522.53L342.84 711.43" stroke="#132e65" stroke-width="1.5"></path><path d="M342.84 711.43L342.84 711.43" stroke="#132e65" stroke-width="1.5"></path><path d="M342.84 711.43L524.85 640.82" stroke="#132e65" stroke-width="1.5"></path><path d="M342.84 711.43L487.91 556.55" stroke="#132e65" stroke-width="1.5"></path><path d="M342.84 711.43L206.14 494.21" stroke="#132e65" stroke-width="1.5"></path><path d="M342.84 711.43L46.71 699.95" stroke="#132e65" stroke-width="1.5"></path><path d="M505.13 391.01L505.13 391.01" stroke="#132e65" stroke-width="1.5"></path><path d="M505.13 391.01L487.91 556.55" stroke="#132e65" stroke-width="1.5"></path><path d="M505.13 391.01L704.72 389.23" stroke="#132e65" stroke-width="1.5"></path><path d="M505.13 391.01L665.35 512.82" stroke="#132e65" stroke-width="1.5"></path><path d="M505.13 391.01L524.85 640.82" stroke="#132e65" stroke-width="1.5"></path><path d="M487.91 556.55L487.91 556.55" stroke="#132e65" stroke-width="1.5"></path><path d="M487.91 556.55L524.85 640.82" stroke="#132e65" stroke-width="1.5"></path><path d="M524.85 640.82L524.85 640.82" stroke="#132e65" stroke-width="1.5"></path><path d="M524.85 640.82L665.35 512.82" stroke="#132e65" stroke-width="1.5"></path><path d="M696.54 215.93L696.54 215.93" stroke="#132e65" stroke-width="1.5"></path><path d="M696.54 215.93L818.56 215.79" stroke="#132e65" stroke-width="1.5"></path><path d="M696.54 215.93L704.72 389.23" stroke="#132e65" stroke-width="1.5"></path><path d="M704.72 389.23L704.72 389.23" stroke="#132e65" stroke-width="1.5"></path><path d="M704.72 389.23L816.57 388.37" stroke="#132e65" stroke-width="1.5"></path><path d="M704.72 389.23L665.35 512.82" stroke="#132e65" stroke-width="1.5"></path><path d="M665.35 512.82L665.35 512.82" stroke="#132e65" stroke-width="1.5"></path><path d="M665.35 512.82L487.91 556.55" stroke="#132e65" stroke-width="1.5"></path><path d="M665.35 512.82L857.94 540.85" stroke="#132e65" stroke-width="1.5"></path><path d="M665.35 512.82L816.57 388.37" stroke="#132e65" stroke-width="1.5"></path><path d="M831.45 96.9L831.45 96.9" stroke="#132e65" stroke-width="1.5"></path><path d="M831.45 96.9L818.56 215.79" stroke="#132e65" stroke-width="1.5"></path><path d="M831.45 96.9L953.55 75.36" stroke="#132e65" stroke-width="1.5"></path><path d="M831.45 96.9L972.54 200" stroke="#132e65" stroke-width="1.5"></path><path d="M831.45 96.9L696.54 215.93" stroke="#132e65" stroke-width="1.5"></path><path d="M831.45 96.9L955.09 -78.22" stroke="#132e65" stroke-width="1.5"></path><path d="M818.56 215.79L818.56 215.79" stroke="#132e65" stroke-width="1.5"></path><path d="M818.56 215.79L972.54 200" stroke="#132e65" stroke-width="1.5"></path><path d="M818.56 215.79L816.57 388.37" stroke="#132e65" stroke-width="1.5"></path><path d="M816.57 388.37L816.57 388.37" stroke="#132e65" stroke-width="1.5"></path><path d="M816.57 388.37L857.94 540.85" stroke="#132e65" stroke-width="1.5"></path><path d="M816.57 388.37L983.05 366.76" stroke="#132e65" stroke-width="1.5"></path><path d="M857.94 540.85L857.94 540.85" stroke="#132e65" stroke-width="1.5"></path><path d="M857.94 540.85L807.76 672.84" stroke="#132e65" stroke-width="1.5"></path><path d="M857.94 540.85L1009.92 555.61" stroke="#132e65" stroke-width="1.5"></path><path d="M807.76 672.84L807.76 672.84" stroke="#132e65" stroke-width="1.5"></path><path d="M807.76 672.84L967.99 690.22" stroke="#132e65" stroke-width="1.5"></path><path d="M807.76 672.84L665.35 512.82" stroke="#132e65" stroke-width="1.5"></path><path d="M807.76 672.84L1009.92 555.61" stroke="#132e65" stroke-width="1.5"></path><path d="M955.09 -78.22L955.09 -78.22" stroke="#132e65" stroke-width="1.5"></path><path d="M955.09 -78.22L1105.1 -51.66" stroke="#132e65" stroke-width="1.5"></path><path d="M955.09 -78.22L953.55 75.36" stroke="#132e65" stroke-width="1.5"></path><path d="M953.55 75.36L953.55 75.36" stroke="#132e65" stroke-width="1.5"></path><path d="M953.55 75.36L972.54 200" stroke="#132e65" stroke-width="1.5"></path><path d="M953.55 75.36L818.56 215.79" stroke="#132e65" stroke-width="1.5"></path><path d="M972.54 200L972.54 200" stroke="#132e65" stroke-width="1.5"></path><path d="M972.54 200L1137.97 188.6" stroke="#132e65" stroke-width="1.5"></path><path d="M972.54 200L983.05 366.76" stroke="#132e65" stroke-width="1.5"></path><path d="M983.05 366.76L983.05 366.76" stroke="#132e65" stroke-width="1.5"></path><path d="M983.05 366.76L1154.94 392.22" stroke="#132e65" stroke-width="1.5"></path><path d="M983.05 366.76L1009.92 555.61" stroke="#132e65" stroke-width="1.5"></path><path d="M983.05 366.76L1133.01 519.36" stroke="#132e65" stroke-width="1.5"></path><path d="M983.05 366.76L857.94 540.85" stroke="#132e65" stroke-width="1.5"></path><path d="M1009.92 555.61L1009.92 555.61" stroke="#132e65" stroke-width="1.5"></path><path d="M1009.92 555.61L1133.01 519.36" stroke="#132e65" stroke-width="1.5"></path><path d="M1009.92 555.61L967.99 690.22" stroke="#132e65" stroke-width="1.5"></path><path d="M1009.92 555.61L1109.31 664.21" stroke="#132e65" stroke-width="1.5"></path><path d="M967.99 690.22L967.99 690.22" stroke="#132e65" stroke-width="1.5"></path><path d="M967.99 690.22L1109.31 664.21" stroke="#132e65" stroke-width="1.5"></path><path d="M1105.1 -51.66L1105.1 -51.66" stroke="#132e65" stroke-width="1.5"></path><path d="M1105.1 -51.66L1245.35 -78.63" stroke="#132e65" stroke-width="1.5"></path><path d="M1105.1 -51.66L953.55 75.36" stroke="#132e65" stroke-width="1.5"></path><path d="M1105.1 -51.66L1137.97 188.6" stroke="#132e65" stroke-width="1.5"></path><path d="M1105.1 -51.66L1301.16 105.09" stroke="#132e65" stroke-width="1.5"></path><path d="M1105.1 -51.66L972.54 200" stroke="#132e65" stroke-width="1.5"></path><path d="M1137.97 188.6L1137.97 188.6" stroke="#132e65" stroke-width="1.5"></path><path d="M1137.97 188.6L1249.06 195.92" stroke="#132e65" stroke-width="1.5"></path><path d="M1137.97 188.6L1301.16 105.09" stroke="#132e65" stroke-width="1.5"></path><path d="M1137.97 188.6L1154.94 392.22" stroke="#132e65" stroke-width="1.5"></path><path d="M1137.97 188.6L953.55 75.36" stroke="#132e65" stroke-width="1.5"></path><path d="M1154.94 392.22L1154.94 392.22" stroke="#132e65" stroke-width="1.5"></path><path d="M1154.94 392.22L1276.8 363.88" stroke="#132e65" stroke-width="1.5"></path><path d="M1154.94 392.22L1133.01 519.36" stroke="#132e65" stroke-width="1.5"></path><path d="M1154.94 392.22L1240 542.06" stroke="#132e65" stroke-width="1.5"></path><path d="M1133.01 519.36L1133.01 519.36" stroke="#132e65" stroke-width="1.5"></path><path d="M1133.01 519.36L1240 542.06" stroke="#132e65" stroke-width="1.5"></path><path d="M1109.31 664.21L1109.31 664.21" stroke="#132e65" stroke-width="1.5"></path><path d="M1109.31 664.21L1133.01 519.36" stroke="#132e65" stroke-width="1.5"></path><path d="M1245.35 -78.63L1245.35 -78.63" stroke="#132e65" stroke-width="1.5"></path><path d="M1245.35 -78.63L1394.43 -88.68" stroke="#132e65" stroke-width="1.5"></path><path d="M1245.35 -78.63L1301.16 105.09" stroke="#132e65" stroke-width="1.5"></path><path d="M1301.16 105.09L1301.16 105.09" stroke="#132e65" stroke-width="1.5"></path><path d="M1301.16 105.09L1249.06 195.92" stroke="#132e65" stroke-width="1.5"></path><path d="M1301.16 105.09L1434.4 37.72" stroke="#132e65" stroke-width="1.5"></path><path d="M1301.16 105.09L1422.71 250.6" stroke="#132e65" stroke-width="1.5"></path><path d="M1301.16 105.09L1394.43 -88.68" stroke="#132e65" stroke-width="1.5"></path><path d="M1249.06 195.92L1249.06 195.92" stroke="#132e65" stroke-width="1.5"></path><path d="M1276.8 363.88L1276.8 363.88" stroke="#132e65" stroke-width="1.5"></path><path d="M1276.8 363.88L1416.5 346.04" stroke="#132e65" stroke-width="1.5"></path><path d="M1276.8 363.88L1249.06 195.92" stroke="#132e65" stroke-width="1.5"></path><path d="M1276.8 363.88L1240 542.06" stroke="#132e65" stroke-width="1.5"></path><path d="M1240 542.06L1240 542.06" stroke="#132e65" stroke-width="1.5"></path><path d="M1240 542.06L1293.41 658.39" stroke="#132e65" stroke-width="1.5"></path><path d="M1240 542.06L1109.31 664.21" stroke="#132e65" stroke-width="1.5"></path><path d="M1293.41 658.39L1293.41 658.39" stroke="#132e65" stroke-width="1.5"></path><path d="M1293.41 658.39L1431.64 707.41" stroke="#132e65" stroke-width="1.5"></path><path d="M1293.41 658.39L1109.31 664.21" stroke="#132e65" stroke-width="1.5"></path><path d="M1394.43 -88.68L1394.43 -88.68" stroke="#132e65" stroke-width="1.5"></path><path d="M1394.43 -88.68L1434.4 37.72" stroke="#132e65" stroke-width="1.5"></path><path d="M1394.43 -88.68L1555.62 48.5" stroke="#132e65" stroke-width="1.5"></path><path d="M1434.4 37.72L1434.4 37.72" stroke="#132e65" stroke-width="1.5"></path><path d="M1434.4 37.72L1555.62 48.5" stroke="#132e65" stroke-width="1.5"></path><path d="M1434.4 37.72L1422.71 250.6" stroke="#132e65" stroke-width="1.5"></path><path d="M1434.4 37.72L1245.35 -78.63" stroke="#132e65" stroke-width="1.5"></path><path d="M1422.71 250.6L1422.71 250.6" stroke="#132e65" stroke-width="1.5"></path><path d="M1422.71 250.6L1416.5 346.04" stroke="#132e65" stroke-width="1.5"></path><path d="M1422.71 250.6L1592.81 234.25" stroke="#132e65" stroke-width="1.5"></path><path d="M1416.5 346.04L1416.5 346.04" stroke="#132e65" stroke-width="1.5"></path><path d="M1416.5 346.04L1574.84 358.85" stroke="#132e65" stroke-width="1.5"></path><path d="M1438.2 520.29L1438.2 520.29" stroke="#132e65" stroke-width="1.5"></path><path d="M1438.2 520.29L1546.67 549.58" stroke="#132e65" stroke-width="1.5"></path><path d="M1438.2 520.29L1556.59 649.45" stroke="#132e65" stroke-width="1.5"></path><path d="M1438.2 520.29L1416.5 346.04" stroke="#132e65" stroke-width="1.5"></path><path d="M1431.64 707.41L1431.64 707.41" stroke="#132e65" stroke-width="1.5"></path><path d="M1431.64 707.41L1556.59 649.45" stroke="#132e65" stroke-width="1.5"></path><path d="M1431.64 707.41L1438.2 520.29" stroke="#132e65" stroke-width="1.5"></path><path d="M1431.64 707.41L1546.67 549.58" stroke="#132e65" stroke-width="1.5"></path><path d="M1555.62 48.5L1555.62 48.5" stroke="#132e65" stroke-width="1.5"></path><path d="M1555.62 48.5L1592.81 234.25" stroke="#132e65" stroke-width="1.5"></path><path d="M1592.81 234.25L1592.81 234.25" stroke="#132e65" stroke-width="1.5"></path><path d="M1592.81 234.25L1574.84 358.85" stroke="#132e65" stroke-width="1.5"></path><path d="M1592.81 234.25L1416.5 346.04" stroke="#132e65" stroke-width="1.5"></path><path d="M1574.84 358.85L1574.84 358.85" stroke="#132e65" stroke-width="1.5"></path><path d="M1574.84 358.85L1422.71 250.6" stroke="#132e65" stroke-width="1.5"></path><path d="M1546.67 549.58L1546.67 549.58" stroke="#132e65" stroke-width="1.5"></path><path d="M1546.67 549.58L1556.59 649.45" stroke="#132e65" stroke-width="1.5"></path><path d="M1546.67 549.58L1574.84 358.85" stroke="#132e65" stroke-width="1.5"></path><path d="M1546.67 549.58L1416.5 346.04" stroke="#132e65" stroke-width="1.5"></path><path d="M1546.67 549.58L1293.41 658.39" stroke="#132e65" stroke-width="1.5"></path><path d="M1556.59 649.45L1556.59 649.45" stroke="#132e65" stroke-width="1.5"></path><path d="M1556.59 649.45L1293.41 658.39" stroke="#132e65" stroke-width="1.5"></path><path d="M1556.59 649.45L1574.84 358.85" stroke="#132e65" stroke-width="1.5"></path><circle r="5" cx="-54.39" cy="406.32" fill="#132e65"></circle><circle r="5" cx="-61.99" cy="495.18" fill="#132e65"></circle><circle r="5" cx="-48.31" cy="647.5" fill="#132e65"></circle><circle r="5" cx="41.77" cy="346.17" fill="#132e65"></circle><circle r="5" cx="101.57" cy="498.94" fill="#132e65"></circle><circle r="5" cx="46.71" cy="699.95" fill="#132e65"></circle><circle r="5" cx="206.14" cy="494.21" fill="#132e65"></circle><circle r="5" cx="244.75" cy="705.63" fill="#132e65"></circle><circle r="5" cx="353.64" cy="342.19" fill="#132e65"></circle><circle r="5" cx="389.89" cy="522.53" fill="#132e65"></circle><circle r="5" cx="342.84" cy="711.43" fill="#132e65"></circle><circle r="5" cx="505.13" cy="391.01" fill="#132e65"></circle><circle r="5" cx="487.91" cy="556.55" fill="#132e65"></circle><circle r="5" cx="524.85" cy="640.82" fill="#132e65"></circle><circle r="5" cx="696.54" cy="215.93" fill="#132e65"></circle><circle r="5" cx="704.72" cy="389.23" fill="#132e65"></circle><circle r="5" cx="665.35" cy="512.82" fill="#132e65"></circle><circle r="5" cx="831.45" cy="96.9" fill="#132e65"></circle><circle r="5" cx="818.56" cy="215.79" fill="#132e65"></circle><circle r="5" cx="816.57" cy="388.37" fill="#132e65"></circle><circle r="5" cx="857.94" cy="540.85" fill="#132e65"></circle><circle r="5" cx="807.76" cy="672.84" fill="#132e65"></circle><circle r="5" cx="955.09" cy="-78.22" fill="#132e65"></circle><circle r="5" cx="953.55" cy="75.36" fill="#132e65"></circle><circle r="5" cx="972.54" cy="200" fill="#132e65"></circle><circle r="5" cx="983.05" cy="366.76" fill="#132e65"></circle><circle r="5" cx="1009.92" cy="555.61" fill="#132e65"></circle><circle r="5" cx="967.99" cy="690.22" fill="#132e65"></circle><circle r="5" cx="1105.1" cy="-51.66" fill="#132e65"></circle><circle r="5" cx="1137.97" cy="188.6" fill="#132e65"></circle><circle r="5" cx="1154.94" cy="392.22" fill="#132e65"></circle><circle r="5" cx="1133.01" cy="519.36" fill="#132e65"></circle><circle r="5" cx="1109.31" cy="664.21" fill="#132e65"></circle><circle r="5" cx="1245.35" cy="-78.63" fill="#132e65"></circle><circle r="5" cx="1301.16" cy="105.09" fill="#132e65"></circle><circle r="5" cx="1249.06" cy="195.92" fill="#132e65"></circle><circle r="5" cx="1276.8" cy="363.88" fill="#132e65"></circle><circle r="5" cx="1240" cy="542.06" fill="#132e65"></circle><circle r="5" cx="1293.41" cy="658.39" fill="#132e65"></circle><circle r="5" cx="1394.43" cy="-88.68" fill="#132e65"></circle><circle r="5" cx="1434.4" cy="37.72" fill="#132e65"></circle><circle r="5" cx="1422.71" cy="250.6" fill="#132e65"></circle><circle r="5" cx="1416.5" cy="346.04" fill="#132e65"></circle><circle r="5" cx="1438.2" cy="520.29" fill="#132e65"></circle><circle r="5" cx="1431.64" cy="707.41" fill="#132e65"></circle><circle r="5" cx="1555.62" cy="48.5" fill="#132e65"></circle><circle r="5" cx="1592.81" cy="234.25" fill="#132e65"></circle><circle r="5" cx="1574.84" cy="358.85" fill="#132e65"></circle><circle r="5" cx="1546.67" cy="549.58" fill="#132e65"></circle><circle r="5" cx="1556.59" cy="649.45" fill="#132e65"></circle><path d="M80.26 550.86L80.26 550.86" stroke="hsl(228.5, 77.2%, 51.5%)" stroke-width="1.5"></path><path d="M80.26 550.86L48.45 680.26" stroke="hsl(228.5, 77.2%, 51.5%)" stroke-width="1.5"></path><path d="M80.26 550.86L221.59 550.7" stroke="hsl(228.5, 77.2%, 51.5%)" stroke-width="1.5"></path><path d="M80.26 550.86L-73.06 496.93" stroke="hsl(228.5, 77.2%, 51.5%)" stroke-width="1.5"></path><path d="M80.26 550.86L-65.53 662.02" stroke="hsl(228.5, 77.2%, 51.5%)" stroke-width="1.5"></path><path d="M527.06 498.65L527.06 498.65" stroke="hsl(228.5, 77.2%, 51.5%)" stroke-width="1.5"></path><path d="M527.06 498.65L410.56 510.34" stroke="hsl(228.5, 77.2%, 51.5%)" stroke-width="1.5"></path><path d="M527.06 498.65L642.64 548.09" stroke="hsl(228.5, 77.2%, 51.5%)" stroke-width="1.5"></path><path d="M527.06 498.65L542.21 674.06" stroke="hsl(228.5, 77.2%, 51.5%)" stroke-width="1.5"></path><path d="M527.06 498.65L687.06 639.04" stroke="hsl(228.5, 77.2%, 51.5%)" stroke-width="1.5"></path><path d="M542.21 674.06L542.21 674.06" stroke="hsl(228.5, 77.2%, 51.5%)" stroke-width="1.5"></path><path d="M542.21 674.06L687.06 639.04" stroke="hsl(228.5, 77.2%, 51.5%)" stroke-width="1.5"></path><path d="M542.21 674.06L642.64 548.09" stroke="hsl(228.5, 77.2%, 51.5%)" stroke-width="1.5"></path><path d="M687.06 639.04L687.06 639.04" stroke="hsl(228.5, 77.2%, 51.5%)" stroke-width="1.5"></path><path d="M687.06 639.04L642.64 548.09" stroke="hsl(228.5, 77.2%, 51.5%)" stroke-width="1.5"></path><path d="M687.06 639.04L815.88 509.68" stroke="hsl(228.5, 77.2%, 51.5%)" stroke-width="1.5"></path><path d="M970.03 401.08L970.03 401.08" stroke="hsl(228.5, 77.2%, 51.5%)" stroke-width="1.5"></path><path d="M970.03 401.08L959.78 541.27" stroke="hsl(228.5, 77.2%, 51.5%)" stroke-width="1.5"></path><path d="M970.03 401.08L815.1 410.83" stroke="hsl(228.5, 77.2%, 51.5%)" stroke-width="1.5"></path><path d="M970.03 401.08L1130.43 388.66" stroke="hsl(228.5, 77.2%, 51.5%)" stroke-width="1.5"></path><path d="M970.03 401.08L1090.3 522.97" stroke="hsl(228.5, 77.2%, 51.5%)" stroke-width="1.5"></path><path d="M970.03 401.08L815.88 509.68" stroke="hsl(228.5, 77.2%, 51.5%)" stroke-width="1.5"></path><path d="M1156.36 -71.33L1156.36 -71.33" stroke="hsl(228.5, 77.2%, 51.5%)" stroke-width="1.5"></path><path d="M1156.36 -71.33L1298.32 -87.66" stroke="hsl(228.5, 77.2%, 51.5%)" stroke-width="1.5"></path><path d="M1156.36 -71.33L1245.81 50.01" stroke="hsl(228.5, 77.2%, 51.5%)" stroke-width="1.5"></path><path d="M1156.36 -71.33L1121.04 108.34" stroke="hsl(228.5, 77.2%, 51.5%)" stroke-width="1.5"></path><path d="M1121.04 108.34L1121.04 108.34" stroke="hsl(228.5, 77.2%, 51.5%)" stroke-width="1.5"></path><path d="M1121.04 108.34L1107.04 234.91" stroke="hsl(228.5, 77.2%, 51.5%)" stroke-width="1.5"></path><path d="M1121.04 108.34L1245.81 50.01" stroke="hsl(228.5, 77.2%, 51.5%)" stroke-width="1.5"></path><path d="M1090.3 522.97L1090.3 522.97" stroke="hsl(228.5, 77.2%, 51.5%)" stroke-width="1.5"></path><path d="M1090.3 522.97L959.78 541.27" stroke="hsl(228.5, 77.2%, 51.5%)" stroke-width="1.5"></path><path d="M1090.3 522.97L1130.43 388.66" stroke="hsl(228.5, 77.2%, 51.5%)" stroke-width="1.5"></path><path d="M1090.3 522.97L1274.3 550.4" stroke="hsl(228.5, 77.2%, 51.5%)" stroke-width="1.5"></path><path d="M1090.3 522.97L964.78 697.45" stroke="hsl(228.5, 77.2%, 51.5%)" stroke-width="1.5"></path><path d="M1090.3 522.97L1246.79 342.27" stroke="hsl(228.5, 77.2%, 51.5%)" stroke-width="1.5"></path><path d="M1260.44 209.03L1260.44 209.03" stroke="hsl(228.5, 77.2%, 51.5%)" stroke-width="1.5"></path><path d="M1260.44 209.03L1246.79 342.27" stroke="hsl(228.5, 77.2%, 51.5%)" stroke-width="1.5"></path><path d="M1260.44 209.03L1107.04 234.91" stroke="hsl(228.5, 77.2%, 51.5%)" stroke-width="1.5"></path><path d="M1260.44 209.03L1245.81 50.01" stroke="hsl(228.5, 77.2%, 51.5%)" stroke-width="1.5"></path><path d="M1260.44 209.03L1387.75 100.89" stroke="hsl(228.5, 77.2%, 51.5%)" stroke-width="1.5"></path><path d="M1260.44 209.03L1121.04 108.34" stroke="hsl(228.5, 77.2%, 51.5%)" stroke-width="1.5"></path><path d="M1260.44 209.03L1453.25 201.08" stroke="hsl(228.5, 77.2%, 51.5%)" stroke-width="1.5"></path><path d="M1274.3 550.4L1274.3 550.4" stroke="hsl(228.5, 77.2%, 51.5%)" stroke-width="1.5"></path><path d="M1274.3 550.4L1273.93 712.03" stroke="hsl(228.5, 77.2%, 51.5%)" stroke-width="1.5"></path><path d="M1274.3 550.4L1407.98 655.62" stroke="hsl(228.5, 77.2%, 51.5%)" stroke-width="1.5"></path><path d="M1453.25 201.08L1453.25 201.08" stroke="hsl(228.5, 77.2%, 51.5%)" stroke-width="1.5"></path><path d="M1453.25 201.08L1570.56 203.48" stroke="hsl(228.5, 77.2%, 51.5%)" stroke-width="1.5"></path><path d="M1453.25 201.08L1387.75 100.89" stroke="hsl(228.5, 77.2%, 51.5%)" stroke-width="1.5"></path><path d="M1453.25 201.08L1586.09 101.69" stroke="hsl(228.5, 77.2%, 51.5%)" stroke-width="1.5"></path><path d="M1453.25 201.08L1547.77 358.29" stroke="hsl(228.5, 77.2%, 51.5%)" stroke-width="1.5"></path><path d="M1453.25 201.08L1246.79 342.27" stroke="hsl(228.5, 77.2%, 51.5%)" stroke-width="1.5"></path><path d="M-73.06 496.93L-73.06 496.93" stroke="hsl(228.5, 77.2%, 51.5%)" stroke-width="1.5"></path><path d="M-73.06 496.93L-65.53 662.02" stroke="hsl(228.5, 77.2%, 51.5%)" stroke-width="1.5"></path><path d="M-73.06 496.93L48.45 680.26" stroke="hsl(228.5, 77.2%, 51.5%)" stroke-width="1.5"></path><path d="M-65.53 662.02L-65.53 662.02" stroke="hsl(228.5, 77.2%, 51.5%)" stroke-width="1.5"></path><path d="M-65.53 662.02L48.45 680.26" stroke="hsl(228.5, 77.2%, 51.5%)" stroke-width="1.5"></path><path d="M48.45 680.26L48.45 680.26" stroke="hsl(228.5, 77.2%, 51.5%)" stroke-width="1.5"></path><path d="M48.45 680.26L259.67 676.64" stroke="hsl(228.5, 77.2%, 51.5%)" stroke-width="1.5"></path><path d="M48.45 680.26L221.59 550.7" stroke="hsl(228.5, 77.2%, 51.5%)" stroke-width="1.5"></path><path d="M48.45 680.26L341.28 692.53" stroke="hsl(228.5, 77.2%, 51.5%)" stroke-width="1.5"></path><path d="M221.59 550.7L221.59 550.7" stroke="hsl(228.5, 77.2%, 51.5%)" stroke-width="1.5"></path><path d="M221.59 550.7L259.67 676.64" stroke="hsl(228.5, 77.2%, 51.5%)" stroke-width="1.5"></path><path d="M221.59 550.7L341.28 692.53" stroke="hsl(228.5, 77.2%, 51.5%)" stroke-width="1.5"></path><path d="M221.59 550.7L410.56 510.34" stroke="hsl(228.5, 77.2%, 51.5%)" stroke-width="1.5"></path><path d="M259.67 676.64L259.67 676.64" stroke="hsl(228.5, 77.2%, 51.5%)" stroke-width="1.5"></path><path d="M259.67 676.64L341.28 692.53" stroke="hsl(228.5, 77.2%, 51.5%)" stroke-width="1.5"></path><path d="M259.67 676.64L80.26 550.86" stroke="hsl(228.5, 77.2%, 51.5%)" stroke-width="1.5"></path><path d="M410.56 510.34L410.56 510.34" stroke="hsl(228.5, 77.2%, 51.5%)" stroke-width="1.5"></path><path d="M410.56 510.34L341.28 692.53" stroke="hsl(228.5, 77.2%, 51.5%)" stroke-width="1.5"></path><path d="M410.56 510.34L542.21 674.06" stroke="hsl(228.5, 77.2%, 51.5%)" stroke-width="1.5"></path><path d="M341.28 692.53L341.28 692.53" stroke="hsl(228.5, 77.2%, 51.5%)" stroke-width="1.5"></path><path d="M341.28 692.53L542.21 674.06" stroke="hsl(228.5, 77.2%, 51.5%)" stroke-width="1.5"></path><path d="M341.28 692.53L527.06 498.65" stroke="hsl(228.5, 77.2%, 51.5%)" stroke-width="1.5"></path><path d="M708.84 358.07L708.84 358.07" stroke="hsl(228.5, 77.2%, 51.5%)" stroke-width="1.5"></path><path d="M708.84 358.07L815.1 410.83" stroke="hsl(228.5, 77.2%, 51.5%)" stroke-width="1.5"></path><path d="M708.84 358.07L815.88 509.68" stroke="hsl(228.5, 77.2%, 51.5%)" stroke-width="1.5"></path><path d="M708.84 358.07L642.64 548.09" stroke="hsl(228.5, 77.2%, 51.5%)" stroke-width="1.5"></path><path d="M708.84 358.07L527.06 498.65" stroke="hsl(228.5, 77.2%, 51.5%)" stroke-width="1.5"></path><path d="M708.84 358.07L970.03 401.08" stroke="hsl(228.5, 77.2%, 51.5%)" stroke-width="1.5"></path><path d="M642.64 548.09L642.64 548.09" stroke="hsl(228.5, 77.2%, 51.5%)" stroke-width="1.5"></path><path d="M642.64 548.09L815.88 509.68" stroke="hsl(228.5, 77.2%, 51.5%)" stroke-width="1.5"></path><path d="M815.1 410.83L815.1 410.83" stroke="hsl(228.5, 77.2%, 51.5%)" stroke-width="1.5"></path><path d="M815.1 410.83L815.88 509.68" stroke="hsl(228.5, 77.2%, 51.5%)" stroke-width="1.5"></path><path d="M815.1 410.83L959.78 541.27" stroke="hsl(228.5, 77.2%, 51.5%)" stroke-width="1.5"></path><path d="M815.1 410.83L642.64 548.09" stroke="hsl(228.5, 77.2%, 51.5%)" stroke-width="1.5"></path><path d="M815.88 509.68L815.88 509.68" stroke="hsl(228.5, 77.2%, 51.5%)" stroke-width="1.5"></path><path d="M815.88 509.68L959.78 541.27" stroke="hsl(228.5, 77.2%, 51.5%)" stroke-width="1.5"></path><path d="M959.78 541.27L959.78 541.27" stroke="hsl(228.5, 77.2%, 51.5%)" stroke-width="1.5"></path><path d="M964.78 697.45L964.78 697.45" stroke="hsl(228.5, 77.2%, 51.5%)" stroke-width="1.5"></path><path d="M964.78 697.45L959.78 541.27" stroke="hsl(228.5, 77.2%, 51.5%)" stroke-width="1.5"></path><path d="M964.78 697.45L815.88 509.68" stroke="hsl(228.5, 77.2%, 51.5%)" stroke-width="1.5"></path><path d="M964.78 697.45L687.06 639.04" stroke="hsl(228.5, 77.2%, 51.5%)" stroke-width="1.5"></path><path d="M964.78 697.45L970.03 401.08" stroke="hsl(228.5, 77.2%, 51.5%)" stroke-width="1.5"></path><path d="M1107.04 234.91L1107.04 234.91" stroke="hsl(228.5, 77.2%, 51.5%)" stroke-width="1.5"></path><path d="M1107.04 234.91L1130.43 388.66" stroke="hsl(228.5, 77.2%, 51.5%)" stroke-width="1.5"></path><path d="M1130.43 388.66L1130.43 388.66" stroke="hsl(228.5, 77.2%, 51.5%)" stroke-width="1.5"></path><path d="M1130.43 388.66L1246.79 342.27" stroke="hsl(228.5, 77.2%, 51.5%)" stroke-width="1.5"></path><path d="M1130.43 388.66L1274.3 550.4" stroke="hsl(228.5, 77.2%, 51.5%)" stroke-width="1.5"></path><path d="M1298.32 -87.66L1298.32 -87.66" stroke="hsl(228.5, 77.2%, 51.5%)" stroke-width="1.5"></path><path d="M1298.32 -87.66L1396.7 -82.78" stroke="hsl(228.5, 77.2%, 51.5%)" stroke-width="1.5"></path><path d="M1298.32 -87.66L1245.81 50.01" stroke="hsl(228.5, 77.2%, 51.5%)" stroke-width="1.5"></path><path d="M1298.32 -87.66L1387.75 100.89" stroke="hsl(228.5, 77.2%, 51.5%)" stroke-width="1.5"></path><path d="M1245.81 50.01L1245.81 50.01" stroke="hsl(228.5, 77.2%, 51.5%)" stroke-width="1.5"></path><path d="M1245.81 50.01L1387.75 100.89" stroke="hsl(228.5, 77.2%, 51.5%)" stroke-width="1.5"></path><path d="M1246.79 342.27L1246.79 342.27" stroke="hsl(228.5, 77.2%, 51.5%)" stroke-width="1.5"></path><path d="M1246.79 342.27L1107.04 234.91" stroke="hsl(228.5, 77.2%, 51.5%)" stroke-width="1.5"></path><path d="M1273.93 712.03L1273.93 712.03" stroke="hsl(228.5, 77.2%, 51.5%)" stroke-width="1.5"></path><path d="M1273.93 712.03L1407.98 655.62" stroke="hsl(228.5, 77.2%, 51.5%)" stroke-width="1.5"></path><path d="M1396.7 -82.78L1396.7 -82.78" stroke="hsl(228.5, 77.2%, 51.5%)" stroke-width="1.5"></path><path d="M1396.7 -82.78L1387.75 100.89" stroke="hsl(228.5, 77.2%, 51.5%)" stroke-width="1.5"></path><path d="M1396.7 -82.78L1595.68 -63.41" stroke="hsl(228.5, 77.2%, 51.5%)" stroke-width="1.5"></path><path d="M1387.75 100.89L1387.75 100.89" stroke="hsl(228.5, 77.2%, 51.5%)" stroke-width="1.5"></path><path d="M1387.75 100.89L1586.09 101.69" stroke="hsl(228.5, 77.2%, 51.5%)" stroke-width="1.5"></path><path d="M1407.98 655.62L1407.98 655.62" stroke="hsl(228.5, 77.2%, 51.5%)" stroke-width="1.5"></path><path d="M1407.98 655.62L1539.61 661.62" stroke="hsl(228.5, 77.2%, 51.5%)" stroke-width="1.5"></path><path d="M1595.68 -63.41L1595.68 -63.41" stroke="hsl(228.5, 77.2%, 51.5%)" stroke-width="1.5"></path><path d="M1595.68 -63.41L1586.09 101.69" stroke="hsl(228.5, 77.2%, 51.5%)" stroke-width="1.5"></path><path d="M1586.09 101.69L1586.09 101.69" stroke="hsl(228.5, 77.2%, 51.5%)" stroke-width="1.5"></path><path d="M1586.09 101.69L1570.56 203.48" stroke="hsl(228.5, 77.2%, 51.5%)" stroke-width="1.5"></path><path d="M1570.56 203.48L1570.56 203.48" stroke="hsl(228.5, 77.2%, 51.5%)" stroke-width="1.5"></path><path d="M1570.56 203.48L1547.77 358.29" stroke="hsl(228.5, 77.2%, 51.5%)" stroke-width="1.5"></path><path d="M1547.77 358.29L1547.77 358.29" stroke="hsl(228.5, 77.2%, 51.5%)" stroke-width="1.5"></path><path d="M1547.77 358.29L1572.79 508.55" stroke="hsl(228.5, 77.2%, 51.5%)" stroke-width="1.5"></path><path d="M1547.77 358.29L1586.09 101.69" stroke="hsl(228.5, 77.2%, 51.5%)" stroke-width="1.5"></path><path d="M1547.77 358.29L1246.79 342.27" stroke="hsl(228.5, 77.2%, 51.5%)" stroke-width="1.5"></path><path d="M1547.77 358.29L1387.75 100.89" stroke="hsl(228.5, 77.2%, 51.5%)" stroke-width="1.5"></path><path d="M1572.79 508.55L1572.79 508.55" stroke="hsl(228.5, 77.2%, 51.5%)" stroke-width="1.5"></path><path d="M1572.79 508.55L1539.61 661.62" stroke="hsl(228.5, 77.2%, 51.5%)" stroke-width="1.5"></path><path d="M1539.61 661.62L1539.61 661.62" stroke="hsl(228.5, 77.2%, 51.5%)" stroke-width="1.5"></path><path d="M1539.61 661.62L1273.93 712.03" stroke="hsl(228.5, 77.2%, 51.5%)" stroke-width="1.5"></path><circle r="25" cx="80.26" cy="550.86" fill="url(#SvgjsRadialGradient1013)"></circle><circle r="25" cx="527.06" cy="498.65" fill="url(#SvgjsRadialGradient1013)"></circle><circle r="25" cx="542.21" cy="674.06" fill="url(#SvgjsRadialGradient1013)"></circle><circle r="25" cx="687.06" cy="639.04" fill="url(#SvgjsRadialGradient1013)"></circle><circle r="25" cx="970.03" cy="401.08" fill="url(#SvgjsRadialGradient1013)"></circle><circle r="25" cx="1156.36" cy="-71.33" fill="url(#SvgjsRadialGradient1013)"></circle><circle r="25" cx="1121.04" cy="108.34" fill="url(#SvgjsRadialGradient1013)"></circle><circle r="25" cx="1090.3" cy="522.97" fill="url(#SvgjsRadialGradient1013)"></circle><circle r="25" cx="1260.44" cy="209.03" fill="url(#SvgjsRadialGradient1013)"></circle><circle r="25" cx="1274.3" cy="550.4" fill="url(#SvgjsRadialGradient1013)"></circle><circle r="25" cx="1453.25" cy="201.08" fill="url(#SvgjsRadialGradient1013)"></circle><circle r="5" cx="-73.06" cy="496.93" fill="#8b9ad9"></circle><circle r="5" cx="-65.53" cy="662.02" fill="#8b9ad9"></circle><circle r="5" cx="48.45" cy="680.26" fill="#8b9ad9"></circle><circle r="5" cx="221.59" cy="550.7" fill="#8b9ad9"></circle><circle r="5" cx="259.67" cy="676.64" fill="#8b9ad9"></circle><circle r="5" cx="410.56" cy="510.34" fill="#8b9ad9"></circle><circle r="5" cx="341.28" cy="692.53" fill="#8b9ad9"></circle><circle r="5" cx="708.84" cy="358.07" fill="#8b9ad9"></circle><circle r="5" cx="642.64" cy="548.09" fill="#8b9ad9"></circle><circle r="5" cx="815.1" cy="410.83" fill="#8b9ad9"></circle><circle r="5" cx="815.88" cy="509.68" fill="#8b9ad9"></circle><circle r="5" cx="959.78" cy="541.27" fill="#8b9ad9"></circle><circle r="5" cx="964.78" cy="697.45" fill="#8b9ad9"></circle><circle r="5" cx="1107.04" cy="234.91" fill="#8b9ad9"></circle><circle r="5" cx="1130.43" cy="388.66" fill="#8b9ad9"></circle><circle r="5" cx="1298.32" cy="-87.66" fill="#8b9ad9"></circle><circle r="5" cx="1245.81" cy="50.01" fill="#8b9ad9"></circle><circle r="5" cx="1246.79" cy="342.27" fill="#8b9ad9"></circle><circle r="5" cx="1273.93" cy="712.03" fill="#8b9ad9"></circle><circle r="5" cx="1396.7" cy="-82.78" fill="#8b9ad9"></circle><circle r="5" cx="1387.75" cy="100.89" fill="#8b9ad9"></circle><circle r="5" cx="1407.98" cy="655.62" fill="#8b9ad9"></circle><circle r="5" cx="1595.68" cy="-63.41" fill="#8b9ad9"></circle><circle r="5" cx="1586.09" cy="101.69" fill="#8b9ad9"></circle><circle r="5" cx="1570.56" cy="203.48" fill="#8b9ad9"></circle><circle r="5" cx="1547.77" cy="358.29" fill="#8b9ad9"></circle><circle r="5" cx="1572.79" cy="508.55" fill="#8b9ad9"></circle><circle r="5" cx="1539.61" cy="661.62" fill="#8b9ad9"></circle></g><defs><mask id="SvgjsMask1012"><rect width="1440" height="560" fill="#ffffff"></rect></mask><radialGradient id="SvgjsRadialGradient1013"><stop stop-color="#ffffff" offset="0.1"></stop><stop stop-color="rgba(23, 53, 179, 1)" offset="0.2"></stop><stop stop-color="rgba(23, 53, 179, 0)" offset="1"></stop></radialGradient></defs></svg>