<!DOCTYPE svg PUBLIC "-//W3C//DTD SVG 1.1//EN" "http://www.w3.org/Graphics/SVG/1.1/DTD/svg11.dtd">
<!-- Uploaded to: SVG Repo, www.svgrepo.com, Transformed by: SVG Repo Mixer Tools -->
<svg version="1.1" id="Layer_1" xmlns="http://www.w3.org/2000/svg" xmlns:xlink="http://www.w3.org/1999/xlink" viewBox="0 0 512 512" xml:space="preserve" width="800px" height="800px" fill="#000000">
<g id="SVGRepo_bgCarrier" stroke-width="0"/>
<g id="SVGRepo_tracerCarrier" stroke-linecap="round" stroke-linejoin="round"/>
<g id="SVGRepo_iconCarrier"> <circle style="fill:#2D46B9;" cx="256" cy="256" r="256"/> <path style="fill:#FAD24D;" d="M170.443,192.626c0.923-5.972,8.276-9.152,11.63-4.766l110.357,144.233 c3.354,4.385-1.645,10.652-7.641,9.98c-69.68-7.796-108.695,5.789-130.555,23.644l-40.753-53.265 c22.951-16.431,46.265-50.527,56.964-119.829L170.443,192.626z"/> <path style="fill:#FFFFFF;" d="M62.233,373.374l8.202-6.277l19.801,25.878l-8.205,6.277c-1.055,0.807-2.578,0.606-3.386-0.451 L61.782,376.76C60.974,375.703,61.177,374.182,62.233,373.374z"/> <path style="fill:#FAD24D;" d="M65.389,360.194l20.299-15.531l30.193,39.463l-20.299,15.531c-2.613,1.999-6.385,1.495-8.383-1.118 l-22.925-29.965c-1.999-2.613-1.498-6.385,1.115-8.384V360.194z"/> <g> <path style="fill:#FFFFFF;" d="M84.746,330.53l46.023-35.214l44.525,58.194l-46.023,35.214c-5.922,4.532-14.477,3.394-19.006-2.529 l-28.048-36.659C77.688,343.614,78.824,335.06,84.746,330.53z"/> <path style="fill:#FFFFFF;" d="M171.044,182.67l2.762-2.113c1.936-1.481,5.756,0.257,8.531,3.884l113.464,148.297 c2.775,3.627,3.455,7.768,1.518,9.25l-2.762,2.113c-1.936,1.481-5.756-0.258-8.531-3.884L172.562,191.92 C169.787,188.293,169.107,184.151,171.044,182.67z"/> </g> <path style="fill:#FAD24D;" d="M228.572,244.871c7.976-1.194,16.341,1.87,21.59,8.727c5.246,6.86,6.017,15.735,2.778,23.119 l-24.367-31.849V244.871z"/> <path style="fill:#FFFFFF;" d="M289.903,247.701l-22.653,7.722l-0.968-2.843l22.653-7.72L289.903,247.701z M291.085,290.141 l-22.426-8.347l-1.049,2.818l22.426,8.347l1.049-2.815V290.141z M283.878,280.675l-13.003-4.837l-1.049,2.815l13.003,4.837 L283.878,280.675z M226.431,205.641l2.19,23.83l-2.99,0.275l-2.19-23.83L226.431,205.641z M233.681,215.073l1.273,13.815 l-2.99,0.275l-1.27-13.813L233.681,215.073z M264.743,215.939l-13.639,19.665l-2.468-1.713l13.639-19.665l2.465,1.713H264.743z M264.236,227.826l-7.909,11.4l-2.468-1.713l7.909-11.397L264.236,227.826z M282.432,256.965l-13.13,4.475l-0.968-2.843 l13.133-4.475l0.968,2.84L282.432,256.965z"/> <path style="fill:#FAD24D;" d="M159.319,365.739c3.1,3.728,3.404,9.476,10.949,21.847c4.239,6.951,11.381,3.788,12.945,13.404 c1.561,9.616,9.291,9.149,12.391,12.882c3.1,3.735,1.285,7.788,7.63,13.425l-21.807,16.687c-9.362-7.701-23.067-21-36.318-41.27 c-4.821-7.374-8.551-13.021-11.442-17.343l25.653-19.628L159.319,365.739L159.319,365.739z"/> <path style="fill:#FFFFFF;" d="M181.427,443.98l22.983-17.585c0.447-0.342,0.971-0.408,1.171-0.147l3.259,4.259 c0.2,0.26-0.001,0.75-0.448,1.092l-22.983,17.585c-0.447,0.342-0.971,0.408-1.171,0.147l-3.259-4.259 C180.779,444.811,180.98,444.322,181.427,443.98z"/> <path style="fill:#FF5B62;" d="M160.977,364.472l17.561,16.559l-8.27,6.555l-12.504-20.657L160.977,364.472z"/> <rect x="350.744" y="318.548" transform="matrix(-0.9288 -0.3706 0.3706 -0.9288 633.8365 815.5484)" style="fill:#15BDB2;" width="89.047" height="56.667"/> <path style="fill:#21D0C3;" d="M447.131,337.054l-82.708-32.998l51.505-8.948L447.131,337.054z"/> <path style="fill:#FFFFFF;" d="M439.109,322.92l-59.138-23.594c-3.069-1.225-6.581,0.283-7.804,3.352l-22.537,56.487l70.294,28.045 l22.537-56.487C443.686,327.655,442.175,324.143,439.109,322.92z"/> <path style="fill:#21D0C3;" d="M447.131,337.054l-50.965,10.172l29.965,42.461L447.131,337.054z"/> <path style="fill:#15BDB2;" d="M426.131,389.687l-82.708-32.998l51.87-9.857L426.131,389.687z"/> <path style="fill:#21D0C3;" d="M364.422,304.056l29.965,42.461l-50.965,10.172l20.997-52.633H364.422z"/> <path style="fill:#C5C6C6;" d="M385.513,308.148l46.27,17.999l-0.551,1.414l-46.27-17.999L385.513,308.148z M380.889,320.038 l29.866,11.62l-0.551,1.414l-29.866-11.62L380.889,320.038z M382.431,316.075l46.27,17.999l-0.551,1.414l-46.27-17.999 L382.431,316.075z M383.974,312.111l46.27,17.999l-0.551,1.414l-46.27-17.999L383.974,312.111z"/> <path style="fill:#FED298;" d="M362.441,165.451l-33.992,11.15l-9.55-34.319l36.192-7.859c0.569-3.557,2.987-8.895,5.338-10.316 l5.238-10.075l0.197-6.919l-1.16-8.008c-0.443-3.072,4.087-4.648,7.119-2.55c3.425,2.366,5.739,9.808,5.713,13.441l-0.095,12.115 l16.698-4.218l5.445-1.797c5.821-1.922,9.399,7.543,3.093,9.629l-4.947,1.634l0.081,0.839l5.621-2.117 c4.785-1.804,8.263,7.279,2.82,9.33l-7.454,2.807l0.095,0.955l5.508-2.083c1.875-0.711,4.11,0.823,4.837,3.428l0,0 c0.724,2.605-0.205,5.049-2.064,5.808l-6.314,2.565l0.147,0.493l4.221-1.366c4.433-1.432,6.86,6.528,2.762,8.152l-5.194,2.062 l0.008,0.034l-0.884,0.314l-0.018,0.008l0,0l-8.234,2.935l-19.088,6.038c-3.982,1.262-7.925,0.288-10.393-0.941 c-0.706-0.351-1.298-0.751-1.75-1.168L362.441,165.451z"/> <path style="fill:#21D0C3;" d="M337.507,135.633l10.573,36.31l-18.92,7.213l-10.946-39.334l19.289-4.189H337.507z"/> <g> <path style="fill:#FFFFFF;" d="M344.689,135.366l9.844,33.11l-6.754,2.305l-10.104-34.044L344.689,135.366z"/> <path style="fill:#FFFFFF;" d="M369.049,98.667l0.96,4.693c-1.22-0.058-2.418,0.071-3.58,0.601l-0.789-4.297 C365.151,96.999,368.511,96.036,369.049,98.667z"/> </g> <path style="fill:#FF5B62;" d="M239.866,85.096c-21.714,5.207-35.628,24.793-31.082,43.752c2.324,9.695,9.025,17.343,17.923,21.813 c-7.166,9.6-16.053,11.048-16.053,11.048c9.813,4.464,22.369-1.999,29.847-6.974c5.083,0.59,10.443,0.306,15.827-0.984 c21.714-5.207,35.628-24.796,31.082-43.755s-25.832-30.104-47.544-24.897L239.866,85.096L239.866,85.096z"/> <path style="fill:#ED4C54;" d="M239.866,85.096c-3.696,0.886-7.166,2.19-10.358,3.838c8.029,13.501,25.87,20.57,44.011,16.218 c3.696-0.886,7.166-2.19,10.358-3.838C275.848,87.812,258.006,80.744,239.866,85.096z"/> <path style="fill:#21D0C3;" d="M257.872,34.01c21.714-5.207,42.996,5.941,47.544,24.897c2.324,9.695-0.181,19.552-6.083,27.568 c10.741,5.309,19.318,2.568,19.318,2.568c-6.723,8.428-20.842,8.362-29.766,7.318c-4.263,2.83-9.167,5.007-14.553,6.301 c-21.714,5.207-42.996-5.941-47.544-24.897C222.245,58.805,236.16,39.216,257.872,34.01z"/> <g> <path style="fill:#FFFFFF;" d="M242.958,64.167l39.216-9.404c1.766-0.422,2.405,2.248,0.64,2.67l-39.216,9.404 C241.833,67.259,241.193,64.589,242.958,64.167z M246.58,81.652l23.282-5.582c1.049-0.252,1.69,2.418,0.64,2.668l-23.282,5.584 C246.171,84.574,245.531,81.903,246.58,81.652z M245.038,72.844l39.216-9.404c1.766-0.422,2.405,2.248,0.64,2.67l-39.216,9.404 C243.914,75.939,243.273,73.268,245.038,72.844z"/> <path style="fill:#FFFFFF;" d="M227.331,120.061l39.216-9.404c1.766-0.422,2.405,2.248,0.64,2.67l-39.216,9.404 C226.205,123.152,225.565,120.483,227.331,120.061z M230.953,137.545l23.282-5.582c1.049-0.252,1.69,2.418,0.64,2.668 l-23.282,5.582C230.544,140.465,229.904,137.794,230.953,137.545z M229.411,128.737l39.216-9.404 c1.766-0.422,2.405,2.248,0.64,2.67l-39.216,9.404C228.285,131.833,227.645,129.162,229.411,128.737z"/> </g> <rect x="359.927" y="197.847" transform="matrix(0.9914 -0.1305 0.1305 0.9914 -25.9927 54.8327)" style="fill:#FF5B62;" width="90.868" height="55.772"/> <path style="fill:#ED4C54;" d="M395.339,214.234l19.214,10.812l-15.759,15.416l-3.452-26.228L395.339,214.234L395.339,214.234z"/> <path style="fill:#FFFFFF;" d="M394.408,213.305l19.213,10.81l-15.759,15.416l-3.452-26.228L394.408,213.305z"/> </g>
</svg>