<svg xmlns="http://www.w3.org/2000/svg" version="1.1" xmlns:xlink="http://www.w3.org/1999/xlink" xmlns:svgjs="http://svgjs.com/svgjs" width="1440" height="560" preserveAspectRatio="none" viewBox="0 0 1440 560"><g mask="url(&quot;#SvgjsMask1156&quot;)" fill="none"><rect width="1440" height="560" x="0" y="0" fill="rgba(248, 248, 248, 1)"></rect><path d="M-89.29 368.01L-89.29 368.01" stroke="#132e65" stroke-width="1.5"></path><path d="M-89.29 368.01L68.12 352.23" stroke="#132e65" stroke-width="1.5"></path><path d="M-89.29 368.01L-45.44 526.39" stroke="#132e65" stroke-width="1.5"></path><path d="M-45.44 526.39L-45.44 526.39" stroke="#132e65" stroke-width="1.5"></path><path d="M-45.44 526.39L62.02 550.09" stroke="#132e65" stroke-width="1.5"></path><path d="M-45.44 526.39L-68.75 651.65" stroke="#132e65" stroke-width="1.5"></path><path d="M-45.44 526.39L68.12 352.23" stroke="#132e65" stroke-width="1.5"></path><path d="M-68.75 651.65L-68.75 651.65" stroke="#132e65" stroke-width="1.5"></path><path d="M-68.75 651.65L83.51 695.39" stroke="#132e65" stroke-width="1.5"></path><path d="M-68.75 651.65L62.02 550.09" stroke="#132e65" stroke-width="1.5"></path><path d="M-68.75 651.65L-89.29 368.01" stroke="#132e65" stroke-width="1.5"></path><path d="M-68.75 651.65L220.62 701.17" stroke="#132e65" stroke-width="1.5"></path><path d="M-68.75 651.65L68.12 352.23" stroke="#132e65" stroke-width="1.5"></path><path d="M68.12 352.23L68.12 352.23" stroke="#132e65" stroke-width="1.5"></path><path d="M68.12 352.23L246.89 342.18" stroke="#132e65" stroke-width="1.5"></path><path d="M68.12 352.23L62.02 550.09" stroke="#132e65" stroke-width="1.5"></path><path d="M68.12 352.23L238.84 491.97" stroke="#132e65" stroke-width="1.5"></path><path d="M62.02 550.09L62.02 550.09" stroke="#132e65" stroke-width="1.5"></path><path d="M62.02 550.09L83.51 695.39" stroke="#132e65" stroke-width="1.5"></path><path d="M62.02 550.09L238.84 491.97" stroke="#132e65" stroke-width="1.5"></path><path d="M83.51 695.39L83.51 695.39" stroke="#132e65" stroke-width="1.5"></path><path d="M83.51 695.39L220.62 701.17" stroke="#132e65" stroke-width="1.5"></path><path d="M83.51 695.39L-45.44 526.39" stroke="#132e65" stroke-width="1.5"></path><path d="M83.51 695.39L238.84 491.97" stroke="#132e65" stroke-width="1.5"></path><path d="M83.51 695.39L348.49 711.06" stroke="#132e65" stroke-width="1.5"></path><path d="M246.89 342.18L246.89 342.18" stroke="#132e65" stroke-width="1.5"></path><path d="M246.89 342.18L352.93 379.13" stroke="#132e65" stroke-width="1.5"></path><path d="M246.89 342.18L238.84 491.97" stroke="#132e65" stroke-width="1.5"></path><path d="M246.89 342.18L397.22 546.09" stroke="#132e65" stroke-width="1.5"></path><path d="M246.89 342.18L510.47 367.69" stroke="#132e65" stroke-width="1.5"></path><path d="M246.89 342.18L62.02 550.09" stroke="#132e65" stroke-width="1.5"></path><path d="M238.84 491.97L238.84 491.97" stroke="#132e65" stroke-width="1.5"></path><path d="M238.84 491.97L352.93 379.13" stroke="#132e65" stroke-width="1.5"></path><path d="M238.84 491.97L397.22 546.09" stroke="#132e65" stroke-width="1.5"></path><path d="M238.84 491.97L220.62 701.17" stroke="#132e65" stroke-width="1.5"></path><path d="M220.62 701.17L220.62 701.17" stroke="#132e65" stroke-width="1.5"></path><path d="M220.62 701.17L348.49 711.06" stroke="#132e65" stroke-width="1.5"></path><path d="M220.62 701.17L62.02 550.09" stroke="#132e65" stroke-width="1.5"></path><path d="M220.62 701.17L397.22 546.09" stroke="#132e65" stroke-width="1.5"></path><path d="M352.93 379.13L352.93 379.13" stroke="#132e65" stroke-width="1.5"></path><path d="M352.93 379.13L510.47 367.69" stroke="#132e65" stroke-width="1.5"></path><path d="M397.22 546.09L397.22 546.09" stroke="#132e65" stroke-width="1.5"></path><path d="M397.22 546.09L502.97 489.64" stroke="#132e65" stroke-width="1.5"></path><path d="M397.22 546.09L348.49 711.06" stroke="#132e65" stroke-width="1.5"></path><path d="M397.22 546.09L352.93 379.13" stroke="#132e65" stroke-width="1.5"></path><path d="M397.22 546.09L517.1 700.17" stroke="#132e65" stroke-width="1.5"></path><path d="M348.49 711.06L348.49 711.06" stroke="#132e65" stroke-width="1.5"></path><path d="M348.49 711.06L517.1 700.17" stroke="#132e65" stroke-width="1.5"></path><path d="M510.47 367.69L510.47 367.69" stroke="#132e65" stroke-width="1.5"></path><path d="M510.47 367.69L502.97 489.64" stroke="#132e65" stroke-width="1.5"></path><path d="M510.47 367.69L690.15 410.47" stroke="#132e65" stroke-width="1.5"></path><path d="M502.97 489.64L502.97 489.64" stroke="#132e65" stroke-width="1.5"></path><path d="M502.97 489.64L352.93 379.13" stroke="#132e65" stroke-width="1.5"></path><path d="M502.97 489.64L698.5 514.61" stroke="#132e65" stroke-width="1.5"></path><path d="M517.1 700.17L517.1 700.17" stroke="#132e65" stroke-width="1.5"></path><path d="M517.1 700.17L661.19 678.03" stroke="#132e65" stroke-width="1.5"></path><path d="M686.28 248.69L686.28 248.69" stroke="#132e65" stroke-width="1.5"></path><path d="M686.28 248.69L690.15 410.47" stroke="#132e65" stroke-width="1.5"></path><path d="M686.28 248.69L857.39 220.88" stroke="#132e65" stroke-width="1.5"></path><path d="M686.28 248.69L510.47 367.69" stroke="#132e65" stroke-width="1.5"></path><path d="M686.28 248.69L846.46 401.69" stroke="#132e65" stroke-width="1.5"></path><path d="M686.28 248.69L856.3 96.45" stroke="#132e65" stroke-width="1.5"></path><path d="M686.28 248.69L943.14 240.69" stroke="#132e65" stroke-width="1.5"></path><path d="M690.15 410.47L690.15 410.47" stroke="#132e65" stroke-width="1.5"></path><path d="M690.15 410.47L698.5 514.61" stroke="#132e65" stroke-width="1.5"></path><path d="M690.15 410.47L846.46 401.69" stroke="#132e65" stroke-width="1.5"></path><path d="M690.15 410.47L830.77 552.98" stroke="#132e65" stroke-width="1.5"></path><path d="M690.15 410.47L502.97 489.64" stroke="#132e65" stroke-width="1.5"></path><path d="M698.5 514.61L698.5 514.61" stroke="#132e65" stroke-width="1.5"></path><path d="M698.5 514.61L830.77 552.98" stroke="#132e65" stroke-width="1.5"></path><path d="M661.19 678.03L661.19 678.03" stroke="#132e65" stroke-width="1.5"></path><path d="M661.19 678.03L698.5 514.61" stroke="#132e65" stroke-width="1.5"></path><path d="M856.3 96.45L856.3 96.45" stroke="#132e65" stroke-width="1.5"></path><path d="M856.3 96.45L857.39 220.88" stroke="#132e65" stroke-width="1.5"></path><path d="M856.3 96.45L943.14 240.69" stroke="#132e65" stroke-width="1.5"></path><path d="M856.3 96.45L958.25 -58.78" stroke="#132e65" stroke-width="1.5"></path><path d="M857.39 220.88L857.39 220.88" stroke="#132e65" stroke-width="1.5"></path><path d="M857.39 220.88L943.14 240.69" stroke="#132e65" stroke-width="1.5"></path><path d="M857.39 220.88L846.46 401.69" stroke="#132e65" stroke-width="1.5"></path><path d="M857.39 220.88L992.62 412.21" stroke="#132e65" stroke-width="1.5"></path><path d="M846.46 401.69L846.46 401.69" stroke="#132e65" stroke-width="1.5"></path><path d="M846.46 401.69L992.62 412.21" stroke="#132e65" stroke-width="1.5"></path><path d="M846.46 401.69L830.77 552.98" stroke="#132e65" stroke-width="1.5"></path><path d="M830.77 552.98L830.77 552.98" stroke="#132e65" stroke-width="1.5"></path><path d="M830.77 552.98L854.49 651.41" stroke="#132e65" stroke-width="1.5"></path><path d="M854.49 651.41L854.49 651.41" stroke="#132e65" stroke-width="1.5"></path><path d="M854.49 651.41L970.07 659.64" stroke="#132e65" stroke-width="1.5"></path><path d="M854.49 651.41L661.19 678.03" stroke="#132e65" stroke-width="1.5"></path><path d="M854.49 651.41L698.5 514.61" stroke="#132e65" stroke-width="1.5"></path><path d="M958.25 -58.78L958.25 -58.78" stroke="#132e65" stroke-width="1.5"></path><path d="M958.25 -58.78L1145.95 -54.96" stroke="#132e65" stroke-width="1.5"></path><path d="M958.25 -58.78L1159.51 77.67" stroke="#132e65" stroke-width="1.5"></path><path d="M958.25 -58.78L857.39 220.88" stroke="#132e65" stroke-width="1.5"></path><path d="M958.25 -58.78L943.14 240.69" stroke="#132e65" stroke-width="1.5"></path><path d="M958.25 -58.78L1128.39 212.44" stroke="#132e65" stroke-width="1.5"></path><path d="M943.14 240.69L943.14 240.69" stroke="#132e65" stroke-width="1.5"></path><path d="M943.14 240.69L992.62 412.21" stroke="#132e65" stroke-width="1.5"></path><path d="M992.62 412.21L992.62 412.21" stroke="#132e65" stroke-width="1.5"></path><path d="M992.62 412.21L1094.89 503.85" stroke="#132e65" stroke-width="1.5"></path><path d="M992.62 412.21L1152.61 381.32" stroke="#132e65" stroke-width="1.5"></path><path d="M992.62 412.21L830.77 552.98" stroke="#132e65" stroke-width="1.5"></path><path d="M970.07 659.64L970.07 659.64" stroke="#132e65" stroke-width="1.5"></path><path d="M970.07 659.64L830.77 552.98" stroke="#132e65" stroke-width="1.5"></path><path d="M970.07 659.64L1094.89 503.85" stroke="#132e65" stroke-width="1.5"></path><path d="M970.07 659.64L992.62 412.21" stroke="#132e65" stroke-width="1.5"></path><path d="M970.07 659.64L846.46 401.69" stroke="#132e65" stroke-width="1.5"></path><path d="M970.07 659.64L698.5 514.61" stroke="#132e65" stroke-width="1.5"></path><path d="M1145.95 -54.96L1145.95 -54.96" stroke="#132e65" stroke-width="1.5"></path><path d="M1145.95 -54.96L1159.51 77.67" stroke="#132e65" stroke-width="1.5"></path><path d="M1145.95 -54.96L1310.21 -108.21" stroke="#132e65" stroke-width="1.5"></path><path d="M1159.51 77.67L1159.51 77.67" stroke="#132e65" stroke-width="1.5"></path><path d="M1159.51 77.67L1128.39 212.44" stroke="#132e65" stroke-width="1.5"></path><path d="M1128.39 212.44L1128.39 212.44" stroke="#132e65" stroke-width="1.5"></path><path d="M1128.39 212.44L1270.44 232.1" stroke="#132e65" stroke-width="1.5"></path><path d="M1128.39 212.44L1152.61 381.32" stroke="#132e65" stroke-width="1.5"></path><path d="M1128.39 212.44L943.14 240.69" stroke="#132e65" stroke-width="1.5"></path><path d="M1128.39 212.44L1307.66 98.39" stroke="#132e65" stroke-width="1.5"></path><path d="M1128.39 212.44L1300.2 378.34" stroke="#132e65" stroke-width="1.5"></path><path d="M1152.61 381.32L1152.61 381.32" stroke="#132e65" stroke-width="1.5"></path><path d="M1152.61 381.32L1094.89 503.85" stroke="#132e65" stroke-width="1.5"></path><path d="M1094.89 503.85L1094.89 503.85" stroke="#132e65" stroke-width="1.5"></path><path d="M1094.89 503.85L1309.4 551.94" stroke="#132e65" stroke-width="1.5"></path><path d="M1094.89 503.85L1285.69 639.34" stroke="#132e65" stroke-width="1.5"></path><path d="M1310.21 -108.21L1310.21 -108.21" stroke="#132e65" stroke-width="1.5"></path><path d="M1310.21 -108.21L1455.55 -79.88" stroke="#132e65" stroke-width="1.5"></path><path d="M1307.66 98.39L1307.66 98.39" stroke="#132e65" stroke-width="1.5"></path><path d="M1307.66 98.39L1433.05 46.49" stroke="#132e65" stroke-width="1.5"></path><path d="M1307.66 98.39L1270.44 232.1" stroke="#132e65" stroke-width="1.5"></path><path d="M1307.66 98.39L1159.51 77.67" stroke="#132e65" stroke-width="1.5"></path><path d="M1270.44 232.1L1270.44 232.1" stroke="#132e65" stroke-width="1.5"></path><path d="M1270.44 232.1L1398.16 222.12" stroke="#132e65" stroke-width="1.5"></path><path d="M1300.2 378.34L1300.2 378.34" stroke="#132e65" stroke-width="1.5"></path><path d="M1300.2 378.34L1440.97 341.39" stroke="#132e65" stroke-width="1.5"></path><path d="M1300.2 378.34L1152.61 381.32" stroke="#132e65" stroke-width="1.5"></path><path d="M1300.2 378.34L1270.44 232.1" stroke="#132e65" stroke-width="1.5"></path><path d="M1300.2 378.34L1309.4 551.94" stroke="#132e65" stroke-width="1.5"></path><path d="M1300.2 378.34L1398.16 222.12" stroke="#132e65" stroke-width="1.5"></path><path d="M1300.2 378.34L1431.99 555.15" stroke="#132e65" stroke-width="1.5"></path><path d="M1309.4 551.94L1309.4 551.94" stroke="#132e65" stroke-width="1.5"></path><path d="M1309.4 551.94L1285.69 639.34" stroke="#132e65" stroke-width="1.5"></path><path d="M1309.4 551.94L1431.99 555.15" stroke="#132e65" stroke-width="1.5"></path><path d="M1309.4 551.94L1394.03 649.08" stroke="#132e65" stroke-width="1.5"></path><path d="M1309.4 551.94L1152.61 381.32" stroke="#132e65" stroke-width="1.5"></path><path d="M1285.69 639.34L1285.69 639.34" stroke="#132e65" stroke-width="1.5"></path><path d="M1285.69 639.34L1394.03 649.08" stroke="#132e65" stroke-width="1.5"></path><path d="M1285.69 639.34L1431.99 555.15" stroke="#132e65" stroke-width="1.5"></path><path d="M1285.69 639.34L1300.2 378.34" stroke="#132e65" stroke-width="1.5"></path><path d="M1285.69 639.34L1539.08 706.78" stroke="#132e65" stroke-width="1.5"></path><path d="M1455.55 -79.88L1455.55 -79.88" stroke="#132e65" stroke-width="1.5"></path><path d="M1455.55 -79.88L1582.94 -71.66" stroke="#132e65" stroke-width="1.5"></path><path d="M1455.55 -79.88L1433.05 46.49" stroke="#132e65" stroke-width="1.5"></path><path d="M1455.55 -79.88L1580.75 53.65" stroke="#132e65" stroke-width="1.5"></path><path d="M1455.55 -79.88L1307.66 98.39" stroke="#132e65" stroke-width="1.5"></path><path d="M1455.55 -79.88L1398.16 222.12" stroke="#132e65" stroke-width="1.5"></path><path d="M1433.05 46.49L1433.05 46.49" stroke="#132e65" stroke-width="1.5"></path><path d="M1433.05 46.49L1580.75 53.65" stroke="#132e65" stroke-width="1.5"></path><path d="M1398.16 222.12L1398.16 222.12" stroke="#132e65" stroke-width="1.5"></path><path d="M1398.16 222.12L1440.97 341.39" stroke="#132e65" stroke-width="1.5"></path><path d="M1398.16 222.12L1307.66 98.39" stroke="#132e65" stroke-width="1.5"></path><path d="M1398.16 222.12L1433.05 46.49" stroke="#132e65" stroke-width="1.5"></path><path d="M1440.97 341.39L1440.97 341.39" stroke="#132e65" stroke-width="1.5"></path><path d="M1431.99 555.15L1431.99 555.15" stroke="#132e65" stroke-width="1.5"></path><path d="M1431.99 555.15L1394.03 649.08" stroke="#132e65" stroke-width="1.5"></path><path d="M1431.99 555.15L1604.68 499.94" stroke="#132e65" stroke-width="1.5"></path><path d="M1431.99 555.15L1539.08 706.78" stroke="#132e65" stroke-width="1.5"></path><path d="M1431.99 555.15L1440.97 341.39" stroke="#132e65" stroke-width="1.5"></path><path d="M1394.03 649.08L1394.03 649.08" stroke="#132e65" stroke-width="1.5"></path><path d="M1582.94 -71.66L1582.94 -71.66" stroke="#132e65" stroke-width="1.5"></path><path d="M1582.94 -71.66L1580.75 53.65" stroke="#132e65" stroke-width="1.5"></path><path d="M1580.75 53.65L1580.75 53.65" stroke="#132e65" stroke-width="1.5"></path><path d="M1580.75 53.65L1591.8 220.24" stroke="#132e65" stroke-width="1.5"></path><path d="M1580.75 53.65L1398.16 222.12" stroke="#132e65" stroke-width="1.5"></path><path d="M1580.75 53.65L1307.66 98.39" stroke="#132e65" stroke-width="1.5"></path><path d="M1591.8 220.24L1591.8 220.24" stroke="#132e65" stroke-width="1.5"></path><path d="M1591.8 220.24L1440.97 341.39" stroke="#132e65" stroke-width="1.5"></path><path d="M1604.68 499.94L1604.68 499.94" stroke="#132e65" stroke-width="1.5"></path><path d="M1604.68 499.94L1539.08 706.78" stroke="#132e65" stroke-width="1.5"></path><path d="M1539.08 706.78L1539.08 706.78" stroke="#132e65" stroke-width="1.5"></path><path d="M1539.08 706.78L1394.03 649.08" stroke="#132e65" stroke-width="1.5"></path><circle r="5" cx="-89.29" cy="368.01" fill="#132e65"></circle><circle r="5" cx="-45.44" cy="526.39" fill="#132e65"></circle><circle r="5" cx="-68.75" cy="651.65" fill="#132e65"></circle><circle r="5" cx="68.12" cy="352.23" fill="#132e65"></circle><circle r="5" cx="62.02" cy="550.09" fill="#132e65"></circle><circle r="5" cx="83.51" cy="695.39" fill="#132e65"></circle><circle r="5" cx="246.89" cy="342.18" fill="#132e65"></circle><circle r="5" cx="238.84" cy="491.97" fill="#132e65"></circle><circle r="5" cx="220.62" cy="701.17" fill="#132e65"></circle><circle r="5" cx="352.93" cy="379.13" fill="#132e65"></circle><circle r="5" cx="397.22" cy="546.09" fill="#132e65"></circle><circle r="5" cx="348.49" cy="711.06" fill="#132e65"></circle><circle r="5" cx="510.47" cy="367.69" fill="#132e65"></circle><circle r="5" cx="502.97" cy="489.64" fill="#132e65"></circle><circle r="5" cx="517.1" cy="700.17" fill="#132e65"></circle><circle r="5" cx="686.28" cy="248.69" fill="#132e65"></circle><circle r="5" cx="690.15" cy="410.47" fill="#132e65"></circle><circle r="5" cx="698.5" cy="514.61" fill="#132e65"></circle><circle r="5" cx="661.19" cy="678.03" fill="#132e65"></circle><circle r="5" cx="856.3" cy="96.45" fill="#132e65"></circle><circle r="5" cx="857.39" cy="220.88" fill="#132e65"></circle><circle r="5" cx="846.46" cy="401.69" fill="#132e65"></circle><circle r="5" cx="830.77" cy="552.98" fill="#132e65"></circle><circle r="5" cx="854.49" cy="651.41" fill="#132e65"></circle><circle r="5" cx="958.25" cy="-58.78" fill="#132e65"></circle><circle r="5" cx="943.14" cy="240.69" fill="#132e65"></circle><circle r="5" cx="992.62" cy="412.21" fill="#132e65"></circle><circle r="5" cx="970.07" cy="659.64" fill="#132e65"></circle><circle r="5" cx="1145.95" cy="-54.96" fill="#132e65"></circle><circle r="5" cx="1159.51" cy="77.67" fill="#132e65"></circle><circle r="5" cx="1128.39" cy="212.44" fill="#132e65"></circle><circle r="5" cx="1152.61" cy="381.32" fill="#132e65"></circle><circle r="5" cx="1094.89" cy="503.85" fill="#132e65"></circle><circle r="5" cx="1310.21" cy="-108.21" fill="#132e65"></circle><circle r="5" cx="1307.66" cy="98.39" fill="#132e65"></circle><circle r="5" cx="1270.44" cy="232.1" fill="#132e65"></circle><circle r="5" cx="1300.2" cy="378.34" fill="#132e65"></circle><circle r="5" cx="1309.4" cy="551.94" fill="#132e65"></circle><circle r="5" cx="1285.69" cy="639.34" fill="#132e65"></circle><circle r="5" cx="1455.55" cy="-79.88" fill="#132e65"></circle><circle r="5" cx="1433.05" cy="46.49" fill="#132e65"></circle><circle r="5" cx="1398.16" cy="222.12" fill="#132e65"></circle><circle r="5" cx="1440.97" cy="341.39" fill="#132e65"></circle><circle r="5" cx="1431.99" cy="555.15" fill="#132e65"></circle><circle r="5" cx="1394.03" cy="649.08" fill="#132e65"></circle><circle r="5" cx="1582.94" cy="-71.66" fill="#132e65"></circle><circle r="5" cx="1580.75" cy="53.65" fill="#132e65"></circle><circle r="5" cx="1591.8" cy="220.24" fill="#132e65"></circle><circle r="5" cx="1604.68" cy="499.94" fill="#132e65"></circle><circle r="5" cx="1539.08" cy="706.78" fill="#132e65"></circle><path d="M848.53 408.1L848.53 408.1" stroke="hsl(228.5, 77.2%, 51.5%)" stroke-width="1.5"></path><path d="M848.53 408.1L810.51 512.2" stroke="hsl(228.5, 77.2%, 51.5%)" stroke-width="1.5"></path><path d="M848.53 408.1L954.8 355.57" stroke="hsl(228.5, 77.2%, 51.5%)" stroke-width="1.5"></path><path d="M848.53 408.1L960.84 492.34" stroke="hsl(228.5, 77.2%, 51.5%)" stroke-width="1.5"></path><path d="M848.53 408.1L674.28 397.83" stroke="hsl(228.5, 77.2%, 51.5%)" stroke-width="1.5"></path><path d="M848.53 408.1L699.81 524.26" stroke="hsl(228.5, 77.2%, 51.5%)" stroke-width="1.5"></path><path d="M848.53 408.1L804.48 642.75" stroke="hsl(228.5, 77.2%, 51.5%)" stroke-width="1.5"></path><path d="M810.51 512.2L810.51 512.2" stroke="hsl(228.5, 77.2%, 51.5%)" stroke-width="1.5"></path><path d="M810.51 512.2L699.81 524.26" stroke="hsl(228.5, 77.2%, 51.5%)" stroke-width="1.5"></path><path d="M1394.91 679.37L1394.91 679.37" stroke="hsl(228.5, 77.2%, 51.5%)" stroke-width="1.5"></path><path d="M1394.91 679.37L1266.63 703.15" stroke="hsl(228.5, 77.2%, 51.5%)" stroke-width="1.5"></path><path d="M1394.91 679.37L1393.95 502.32" stroke="hsl(228.5, 77.2%, 51.5%)" stroke-width="1.5"></path><path d="M1394.91 679.37L1571.2 655.15" stroke="hsl(228.5, 77.2%, 51.5%)" stroke-width="1.5"></path><path d="M1394.91 679.37L1275.5 537.8" stroke="hsl(228.5, 77.2%, 51.5%)" stroke-width="1.5"></path><path d="M1394.91 679.37L1563.3 496.44" stroke="hsl(228.5, 77.2%, 51.5%)" stroke-width="1.5"></path><path d="M1563.3 496.44L1563.3 496.44" stroke="hsl(228.5, 77.2%, 51.5%)" stroke-width="1.5"></path><path d="M1563.3 496.44L1582.48 369.42" stroke="hsl(228.5, 77.2%, 51.5%)" stroke-width="1.5"></path><path d="M1563.3 496.44L1571.2 655.15" stroke="hsl(228.5, 77.2%, 51.5%)" stroke-width="1.5"></path><path d="M-93.61 501.79L-93.61 501.79" stroke="hsl(228.5, 77.2%, 51.5%)" stroke-width="1.5"></path><path d="M-93.61 501.79L-68.57 664.78" stroke="hsl(228.5, 77.2%, 51.5%)" stroke-width="1.5"></path><path d="M-93.61 501.79L85.04 508.75" stroke="hsl(228.5, 77.2%, 51.5%)" stroke-width="1.5"></path><path d="M-93.61 501.79L65.34 701.88" stroke="hsl(228.5, 77.2%, 51.5%)" stroke-width="1.5"></path><path d="M-93.61 501.79L190.28 522.59" stroke="hsl(228.5, 77.2%, 51.5%)" stroke-width="1.5"></path><path d="M-93.61 501.79L213.46 684.7" stroke="hsl(228.5, 77.2%, 51.5%)" stroke-width="1.5"></path><path d="M-68.57 664.78L-68.57 664.78" stroke="hsl(228.5, 77.2%, 51.5%)" stroke-width="1.5"></path><path d="M-68.57 664.78L65.34 701.88" stroke="hsl(228.5, 77.2%, 51.5%)" stroke-width="1.5"></path><path d="M-68.57 664.78L85.04 508.75" stroke="hsl(228.5, 77.2%, 51.5%)" stroke-width="1.5"></path><path d="M85.04 508.75L85.04 508.75" stroke="hsl(228.5, 77.2%, 51.5%)" stroke-width="1.5"></path><path d="M85.04 508.75L190.28 522.59" stroke="hsl(228.5, 77.2%, 51.5%)" stroke-width="1.5"></path><path d="M85.04 508.75L65.34 701.88" stroke="hsl(228.5, 77.2%, 51.5%)" stroke-width="1.5"></path><path d="M65.34 701.88L65.34 701.88" stroke="hsl(228.5, 77.2%, 51.5%)" stroke-width="1.5"></path><path d="M65.34 701.88L213.46 684.7" stroke="hsl(228.5, 77.2%, 51.5%)" stroke-width="1.5"></path><path d="M190.28 522.59L190.28 522.59" stroke="hsl(228.5, 77.2%, 51.5%)" stroke-width="1.5"></path><path d="M190.28 522.59L213.46 684.7" stroke="hsl(228.5, 77.2%, 51.5%)" stroke-width="1.5"></path><path d="M190.28 522.59L354.6 493.38" stroke="hsl(228.5, 77.2%, 51.5%)" stroke-width="1.5"></path><path d="M190.28 522.59L65.34 701.88" stroke="hsl(228.5, 77.2%, 51.5%)" stroke-width="1.5"></path><path d="M190.28 522.59L339.17 704.83" stroke="hsl(228.5, 77.2%, 51.5%)" stroke-width="1.5"></path><path d="M213.46 684.7L213.46 684.7" stroke="hsl(228.5, 77.2%, 51.5%)" stroke-width="1.5"></path><path d="M213.46 684.7L339.17 704.83" stroke="hsl(228.5, 77.2%, 51.5%)" stroke-width="1.5"></path><path d="M213.46 684.7L85.04 508.75" stroke="hsl(228.5, 77.2%, 51.5%)" stroke-width="1.5"></path><path d="M213.46 684.7L354.6 493.38" stroke="hsl(228.5, 77.2%, 51.5%)" stroke-width="1.5"></path><path d="M213.46 684.7L-68.57 664.78" stroke="hsl(228.5, 77.2%, 51.5%)" stroke-width="1.5"></path><path d="M354.6 493.38L354.6 493.38" stroke="hsl(228.5, 77.2%, 51.5%)" stroke-width="1.5"></path><path d="M339.17 704.83L339.17 704.83" stroke="hsl(228.5, 77.2%, 51.5%)" stroke-width="1.5"></path><path d="M339.17 704.83L502.01 660.38" stroke="hsl(228.5, 77.2%, 51.5%)" stroke-width="1.5"></path><path d="M339.17 704.83L354.6 493.38" stroke="hsl(228.5, 77.2%, 51.5%)" stroke-width="1.5"></path><path d="M559.98 526.7L559.98 526.7" stroke="hsl(228.5, 77.2%, 51.5%)" stroke-width="1.5"></path><path d="M559.98 526.7L699.81 524.26" stroke="hsl(228.5, 77.2%, 51.5%)" stroke-width="1.5"></path><path d="M559.98 526.7L502.01 660.38" stroke="hsl(228.5, 77.2%, 51.5%)" stroke-width="1.5"></path><path d="M559.98 526.7L674.28 397.83" stroke="hsl(228.5, 77.2%, 51.5%)" stroke-width="1.5"></path><path d="M502.01 660.38L502.01 660.38" stroke="hsl(228.5, 77.2%, 51.5%)" stroke-width="1.5"></path><path d="M502.01 660.38L662.63 708.8" stroke="hsl(228.5, 77.2%, 51.5%)" stroke-width="1.5"></path><path d="M674.28 397.83L674.28 397.83" stroke="hsl(228.5, 77.2%, 51.5%)" stroke-width="1.5"></path><path d="M674.28 397.83L699.81 524.26" stroke="hsl(228.5, 77.2%, 51.5%)" stroke-width="1.5"></path><path d="M674.28 397.83L810.51 512.2" stroke="hsl(228.5, 77.2%, 51.5%)" stroke-width="1.5"></path><path d="M699.81 524.26L699.81 524.26" stroke="hsl(228.5, 77.2%, 51.5%)" stroke-width="1.5"></path><path d="M699.81 524.26L804.48 642.75" stroke="hsl(228.5, 77.2%, 51.5%)" stroke-width="1.5"></path><path d="M699.81 524.26L662.63 708.8" stroke="hsl(228.5, 77.2%, 51.5%)" stroke-width="1.5"></path><path d="M662.63 708.8L662.63 708.8" stroke="hsl(228.5, 77.2%, 51.5%)" stroke-width="1.5"></path><path d="M662.63 708.8L804.48 642.75" stroke="hsl(228.5, 77.2%, 51.5%)" stroke-width="1.5"></path><path d="M662.63 708.8L559.98 526.7" stroke="hsl(228.5, 77.2%, 51.5%)" stroke-width="1.5"></path><path d="M662.63 708.8L810.51 512.2" stroke="hsl(228.5, 77.2%, 51.5%)" stroke-width="1.5"></path><path d="M804.48 642.75L804.48 642.75" stroke="hsl(228.5, 77.2%, 51.5%)" stroke-width="1.5"></path><path d="M804.48 642.75L810.51 512.2" stroke="hsl(228.5, 77.2%, 51.5%)" stroke-width="1.5"></path><path d="M804.48 642.75L1002.52 699.99" stroke="hsl(228.5, 77.2%, 51.5%)" stroke-width="1.5"></path><path d="M804.48 642.75L960.84 492.34" stroke="hsl(228.5, 77.2%, 51.5%)" stroke-width="1.5"></path><path d="M954.8 355.57L954.8 355.57" stroke="hsl(228.5, 77.2%, 51.5%)" stroke-width="1.5"></path><path d="M960.84 492.34L960.84 492.34" stroke="hsl(228.5, 77.2%, 51.5%)" stroke-width="1.5"></path><path d="M960.84 492.34L954.8 355.57" stroke="hsl(228.5, 77.2%, 51.5%)" stroke-width="1.5"></path><path d="M960.84 492.34L810.51 512.2" stroke="hsl(228.5, 77.2%, 51.5%)" stroke-width="1.5"></path><path d="M960.84 492.34L1131.39 510.38" stroke="hsl(228.5, 77.2%, 51.5%)" stroke-width="1.5"></path><path d="M960.84 492.34L1089.21 368.07" stroke="hsl(228.5, 77.2%, 51.5%)" stroke-width="1.5"></path><path d="M960.84 492.34L1002.52 699.99" stroke="hsl(228.5, 77.2%, 51.5%)" stroke-width="1.5"></path><path d="M1002.52 699.99L1002.52 699.99" stroke="hsl(228.5, 77.2%, 51.5%)" stroke-width="1.5"></path><path d="M1002.52 699.99L1123.76 675.89" stroke="hsl(228.5, 77.2%, 51.5%)" stroke-width="1.5"></path><path d="M1141.47 84.54L1141.47 84.54" stroke="hsl(228.5, 77.2%, 51.5%)" stroke-width="1.5"></path><path d="M1141.47 84.54L1155.21 212.52" stroke="hsl(228.5, 77.2%, 51.5%)" stroke-width="1.5"></path><path d="M1141.47 84.54L1297.44 38.42" stroke="hsl(228.5, 77.2%, 51.5%)" stroke-width="1.5"></path><path d="M1141.47 84.54L1261.69 204.92" stroke="hsl(228.5, 77.2%, 51.5%)" stroke-width="1.5"></path><path d="M1141.47 84.54L1282.38 -68.03" stroke="hsl(228.5, 77.2%, 51.5%)" stroke-width="1.5"></path><path d="M1141.47 84.54L1089.21 368.07" stroke="hsl(228.5, 77.2%, 51.5%)" stroke-width="1.5"></path><path d="M1155.21 212.52L1155.21 212.52" stroke="hsl(228.5, 77.2%, 51.5%)" stroke-width="1.5"></path><path d="M1155.21 212.52L1261.69 204.92" stroke="hsl(228.5, 77.2%, 51.5%)" stroke-width="1.5"></path><path d="M1155.21 212.52L1089.21 368.07" stroke="hsl(228.5, 77.2%, 51.5%)" stroke-width="1.5"></path><path d="M1155.21 212.52L1297.44 38.42" stroke="hsl(228.5, 77.2%, 51.5%)" stroke-width="1.5"></path><path d="M1155.21 212.52L954.8 355.57" stroke="hsl(228.5, 77.2%, 51.5%)" stroke-width="1.5"></path><path d="M1089.21 368.07L1089.21 368.07" stroke="hsl(228.5, 77.2%, 51.5%)" stroke-width="1.5"></path><path d="M1089.21 368.07L954.8 355.57" stroke="hsl(228.5, 77.2%, 51.5%)" stroke-width="1.5"></path><path d="M1089.21 368.07L1131.39 510.38" stroke="hsl(228.5, 77.2%, 51.5%)" stroke-width="1.5"></path><path d="M1089.21 368.07L1310.53 406.46" stroke="hsl(228.5, 77.2%, 51.5%)" stroke-width="1.5"></path><path d="M1089.21 368.07L1261.69 204.92" stroke="hsl(228.5, 77.2%, 51.5%)" stroke-width="1.5"></path><path d="M1131.39 510.38L1131.39 510.38" stroke="hsl(228.5, 77.2%, 51.5%)" stroke-width="1.5"></path><path d="M1131.39 510.38L1275.5 537.8" stroke="hsl(228.5, 77.2%, 51.5%)" stroke-width="1.5"></path><path d="M1131.39 510.38L1123.76 675.89" stroke="hsl(228.5, 77.2%, 51.5%)" stroke-width="1.5"></path><path d="M1123.76 675.89L1123.76 675.89" stroke="hsl(228.5, 77.2%, 51.5%)" stroke-width="1.5"></path><path d="M1123.76 675.89L1266.63 703.15" stroke="hsl(228.5, 77.2%, 51.5%)" stroke-width="1.5"></path><path d="M1123.76 675.89L1275.5 537.8" stroke="hsl(228.5, 77.2%, 51.5%)" stroke-width="1.5"></path><path d="M1123.76 675.89L960.84 492.34" stroke="hsl(228.5, 77.2%, 51.5%)" stroke-width="1.5"></path><path d="M1282.38 -68.03L1282.38 -68.03" stroke="hsl(228.5, 77.2%, 51.5%)" stroke-width="1.5"></path><path d="M1282.38 -68.03L1297.44 38.42" stroke="hsl(228.5, 77.2%, 51.5%)" stroke-width="1.5"></path><path d="M1282.38 -68.03L1444.1 -111.26" stroke="hsl(228.5, 77.2%, 51.5%)" stroke-width="1.5"></path><path d="M1282.38 -68.03L1462.3 81.62" stroke="hsl(228.5, 77.2%, 51.5%)" stroke-width="1.5"></path><path d="M1282.38 -68.03L1551.17 -78.49" stroke="hsl(228.5, 77.2%, 51.5%)" stroke-width="1.5"></path><path d="M1297.44 38.42L1297.44 38.42" stroke="hsl(228.5, 77.2%, 51.5%)" stroke-width="1.5"></path><path d="M1297.44 38.42L1261.69 204.92" stroke="hsl(228.5, 77.2%, 51.5%)" stroke-width="1.5"></path><path d="M1261.69 204.92L1261.69 204.92" stroke="hsl(228.5, 77.2%, 51.5%)" stroke-width="1.5"></path><path d="M1310.53 406.46L1310.53 406.46" stroke="hsl(228.5, 77.2%, 51.5%)" stroke-width="1.5"></path><path d="M1310.53 406.46L1393.95 502.32" stroke="hsl(228.5, 77.2%, 51.5%)" stroke-width="1.5"></path><path d="M1310.53 406.46L1275.5 537.8" stroke="hsl(228.5, 77.2%, 51.5%)" stroke-width="1.5"></path><path d="M1275.5 537.8L1275.5 537.8" stroke="hsl(228.5, 77.2%, 51.5%)" stroke-width="1.5"></path><path d="M1275.5 537.8L1393.95 502.32" stroke="hsl(228.5, 77.2%, 51.5%)" stroke-width="1.5"></path><path d="M1275.5 537.8L1266.63 703.15" stroke="hsl(228.5, 77.2%, 51.5%)" stroke-width="1.5"></path><path d="M1266.63 703.15L1266.63 703.15" stroke="hsl(228.5, 77.2%, 51.5%)" stroke-width="1.5"></path><path d="M1266.63 703.15L1131.39 510.38" stroke="hsl(228.5, 77.2%, 51.5%)" stroke-width="1.5"></path><path d="M1266.63 703.15L1393.95 502.32" stroke="hsl(228.5, 77.2%, 51.5%)" stroke-width="1.5"></path><path d="M1266.63 703.15L1002.52 699.99" stroke="hsl(228.5, 77.2%, 51.5%)" stroke-width="1.5"></path><path d="M1444.1 -111.26L1444.1 -111.26" stroke="hsl(228.5, 77.2%, 51.5%)" stroke-width="1.5"></path><path d="M1444.1 -111.26L1551.17 -78.49" stroke="hsl(228.5, 77.2%, 51.5%)" stroke-width="1.5"></path><path d="M1444.1 -111.26L1462.3 81.62" stroke="hsl(228.5, 77.2%, 51.5%)" stroke-width="1.5"></path><path d="M1444.1 -111.26L1297.44 38.42" stroke="hsl(228.5, 77.2%, 51.5%)" stroke-width="1.5"></path><path d="M1444.1 -111.26L1611.95 101.98" stroke="hsl(228.5, 77.2%, 51.5%)" stroke-width="1.5"></path><path d="M1462.3 81.62L1462.3 81.62" stroke="hsl(228.5, 77.2%, 51.5%)" stroke-width="1.5"></path><path d="M1462.3 81.62L1461.98 204.75" stroke="hsl(228.5, 77.2%, 51.5%)" stroke-width="1.5"></path><path d="M1462.3 81.62L1611.95 101.98" stroke="hsl(228.5, 77.2%, 51.5%)" stroke-width="1.5"></path><path d="M1462.3 81.62L1297.44 38.42" stroke="hsl(228.5, 77.2%, 51.5%)" stroke-width="1.5"></path><path d="M1461.98 204.75L1461.98 204.75" stroke="hsl(228.5, 77.2%, 51.5%)" stroke-width="1.5"></path><path d="M1461.98 204.75L1565.22 229.84" stroke="hsl(228.5, 77.2%, 51.5%)" stroke-width="1.5"></path><path d="M1461.98 204.75L1611.95 101.98" stroke="hsl(228.5, 77.2%, 51.5%)" stroke-width="1.5"></path><path d="M1461.98 204.75L1261.69 204.92" stroke="hsl(228.5, 77.2%, 51.5%)" stroke-width="1.5"></path><path d="M1461.98 204.75L1582.48 369.42" stroke="hsl(228.5, 77.2%, 51.5%)" stroke-width="1.5"></path><path d="M1393.95 502.32L1393.95 502.32" stroke="hsl(228.5, 77.2%, 51.5%)" stroke-width="1.5"></path><path d="M1393.95 502.32L1563.3 496.44" stroke="hsl(228.5, 77.2%, 51.5%)" stroke-width="1.5"></path><path d="M1393.95 502.32L1582.48 369.42" stroke="hsl(228.5, 77.2%, 51.5%)" stroke-width="1.5"></path><path d="M1393.95 502.32L1571.2 655.15" stroke="hsl(228.5, 77.2%, 51.5%)" stroke-width="1.5"></path><path d="M1551.17 -78.49L1551.17 -78.49" stroke="hsl(228.5, 77.2%, 51.5%)" stroke-width="1.5"></path><path d="M1551.17 -78.49L1462.3 81.62" stroke="hsl(228.5, 77.2%, 51.5%)" stroke-width="1.5"></path><path d="M1551.17 -78.49L1611.95 101.98" stroke="hsl(228.5, 77.2%, 51.5%)" stroke-width="1.5"></path><path d="M1611.95 101.98L1611.95 101.98" stroke="hsl(228.5, 77.2%, 51.5%)" stroke-width="1.5"></path><path d="M1611.95 101.98L1565.22 229.84" stroke="hsl(228.5, 77.2%, 51.5%)" stroke-width="1.5"></path><path d="M1611.95 101.98L1582.48 369.42" stroke="hsl(228.5, 77.2%, 51.5%)" stroke-width="1.5"></path><path d="M1565.22 229.84L1565.22 229.84" stroke="hsl(228.5, 77.2%, 51.5%)" stroke-width="1.5"></path><path d="M1565.22 229.84L1582.48 369.42" stroke="hsl(228.5, 77.2%, 51.5%)" stroke-width="1.5"></path><path d="M1565.22 229.84L1462.3 81.62" stroke="hsl(228.5, 77.2%, 51.5%)" stroke-width="1.5"></path><path d="M1582.48 369.42L1582.48 369.42" stroke="hsl(228.5, 77.2%, 51.5%)" stroke-width="1.5"></path><path d="M1571.2 655.15L1571.2 655.15" stroke="hsl(228.5, 77.2%, 51.5%)" stroke-width="1.5"></path><path d="M1571.2 655.15L1582.48 369.42" stroke="hsl(228.5, 77.2%, 51.5%)" stroke-width="1.5"></path><path d="M1571.2 655.15L1266.63 703.15" stroke="hsl(228.5, 77.2%, 51.5%)" stroke-width="1.5"></path><path d="M1571.2 655.15L1275.5 537.8" stroke="hsl(228.5, 77.2%, 51.5%)" stroke-width="1.5"></path><circle r="25" cx="848.53" cy="408.1" fill="url(#SvgjsRadialGradient1157)"></circle><circle r="25" cx="810.51" cy="512.2" fill="url(#SvgjsRadialGradient1157)"></circle><circle r="25" cx="1394.91" cy="679.37" fill="url(#SvgjsRadialGradient1157)"></circle><circle r="25" cx="1563.3" cy="496.44" fill="url(#SvgjsRadialGradient1157)"></circle><circle r="5" cx="-93.61" cy="501.79" fill="#8b9ad9"></circle><circle r="5" cx="-68.57" cy="664.78" fill="#8b9ad9"></circle><circle r="5" cx="85.04" cy="508.75" fill="#8b9ad9"></circle><circle r="5" cx="65.34" cy="701.88" fill="#8b9ad9"></circle><circle r="5" cx="190.28" cy="522.59" fill="#8b9ad9"></circle><circle r="5" cx="213.46" cy="684.7" fill="#8b9ad9"></circle><circle r="5" cx="354.6" cy="493.38" fill="#8b9ad9"></circle><circle r="5" cx="339.17" cy="704.83" fill="#8b9ad9"></circle><circle r="5" cx="559.98" cy="526.7" fill="#8b9ad9"></circle><circle r="5" cx="502.01" cy="660.38" fill="#8b9ad9"></circle><circle r="5" cx="674.28" cy="397.83" fill="#8b9ad9"></circle><circle r="5" cx="699.81" cy="524.26" fill="#8b9ad9"></circle><circle r="5" cx="662.63" cy="708.8" fill="#8b9ad9"></circle><circle r="5" cx="804.48" cy="642.75" fill="#8b9ad9"></circle><circle r="5" cx="954.8" cy="355.57" fill="#8b9ad9"></circle><circle r="5" cx="960.84" cy="492.34" fill="#8b9ad9"></circle><circle r="5" cx="1002.52" cy="699.99" fill="#8b9ad9"></circle><circle r="5" cx="1141.47" cy="84.54" fill="#8b9ad9"></circle><circle r="5" cx="1155.21" cy="212.52" fill="#8b9ad9"></circle><circle r="5" cx="1089.21" cy="368.07" fill="#8b9ad9"></circle><circle r="5" cx="1131.39" cy="510.38" fill="#8b9ad9"></circle><circle r="5" cx="1123.76" cy="675.89" fill="#8b9ad9"></circle><circle r="5" cx="1282.38" cy="-68.03" fill="#8b9ad9"></circle><circle r="5" cx="1297.44" cy="38.42" fill="#8b9ad9"></circle><circle r="5" cx="1261.69" cy="204.92" fill="#8b9ad9"></circle><circle r="5" cx="1310.53" cy="406.46" fill="#8b9ad9"></circle><circle r="5" cx="1275.5" cy="537.8" fill="#8b9ad9"></circle><circle r="5" cx="1266.63" cy="703.15" fill="#8b9ad9"></circle><circle r="5" cx="1444.1" cy="-111.26" fill="#8b9ad9"></circle><circle r="5" cx="1462.3" cy="81.62" fill="#8b9ad9"></circle><circle r="5" cx="1461.98" cy="204.75" fill="#8b9ad9"></circle><circle r="5" cx="1393.95" cy="502.32" fill="#8b9ad9"></circle><circle r="5" cx="1551.17" cy="-78.49" fill="#8b9ad9"></circle><circle r="5" cx="1611.95" cy="101.98" fill="#8b9ad9"></circle><circle r="5" cx="1565.22" cy="229.84" fill="#8b9ad9"></circle><circle r="5" cx="1582.48" cy="369.42" fill="#8b9ad9"></circle><circle r="5" cx="1571.2" cy="655.15" fill="#8b9ad9"></circle></g><defs><mask id="SvgjsMask1156"><rect width="1440" height="560" fill="#ffffff"></rect></mask><radialGradient id="SvgjsRadialGradient1157"><stop stop-color="#ffffff" offset="0.1"></stop><stop stop-color="rgba(23, 53, 179, 1)" offset="0.2"></stop><stop stop-color="rgba(23, 53, 179, 0)" offset="1"></stop></radialGradient></defs></svg>